<svg width="40" height="40" viewBox="0 0 40 40" fill="none" xmlns="http://www.w3.org/2000/svg">
<g id="&#208;&#160;&#208;&#181;&#209;&#129;&#209;&#131;&#209;&#128;&#209;&#129; 1 5" clip-path="url(#clip0_208_131232)">
<g id="&#208;&#161;&#208;&#187;&#208;&#190;&#208;&#185; 1">
<g id="Group">
<path id="Vector" d="M21.2953 37.4679C21.0509 37.4857 20.8056 37.4982 20.5602 37.5034C20.6782 37.494 20.7972 37.4836 20.9152 37.4721C21.005 37.4627 21.0969 37.4575 21.1877 37.4596C21.2243 37.4596 21.2608 37.4627 21.2953 37.4679Z" fill="#039E2A"/>
<path id="Vector_2" d="M19.7301 36.2307C19.4377 36.2547 19.1412 36.2464 18.8478 36.2328C18.7194 36.2276 18.5909 36.2203 18.4625 36.2119C18.8833 36.2338 19.3062 36.2391 19.7301 36.2307Z" fill="#039E2A"/>
<path id="Vector_3" d="M36.2411 19.4461C36.2421 19.5599 36.2369 19.6769 36.2171 19.7896C36.2275 19.5912 36.2348 19.3928 36.238 19.1945C36.239 19.278 36.24 19.3626 36.2411 19.4461Z" fill="#039E2A"/>
<path id="Vector_4" d="M39.9937 28.7473C39.9864 28.031 39.6471 27.6092 38.9517 27.4369C38.486 27.321 38.0182 27.2155 37.5431 27.1049C37.4909 26.9723 37.445 26.8543 37.3959 26.73C37.6475 26.3312 37.894 25.9479 38.132 25.5616C38.4495 25.0469 38.4787 24.601 38.2062 24.1656C38.225 24.127 38.2406 24.0862 38.2542 24.0413C38.3388 23.7553 38.391 23.4577 38.438 23.1622C38.5382 22.5347 38.6092 21.9082 38.6478 21.2827V21.2796C38.6551 21.2472 38.6593 21.2138 38.6625 21.1794C38.8201 19.3928 38.7491 17.6136 38.4119 15.8532C37.6423 11.8374 35.8172 8.37192 32.88 5.52246C29.7204 2.45686 25.9354 0.671383 21.5563 0.161842C21.0927 0.108591 20.6291 0.0542953 20.1655 0H18.6024C18.1388 0.0542953 17.6752 0.109635 17.2116 0.161842C13.7075 0.554439 10.5364 1.80428 7.73395 3.9385C3.75786 6.96547 1.31144 10.9603 0.35814 15.8626C0.217181 16.5862 0.175416 17.3307 0.0856196 18.0647C0.0636926 18.2443 0.0292359 18.4228 0 18.6014V20.1645C0.0292359 20.344 0.0616043 20.5226 0.0856196 20.7022C0.202563 21.5772 0.257903 22.4657 0.442716 23.3272C1.41168 27.8284 3.66389 31.5665 7.25887 34.4535C10.9645 37.4304 15.2257 38.8201 19.9723 38.7293C20.1624 38.7262 20.3524 38.7188 20.5414 38.7084H20.5497C21.3757 38.6844 22.2026 38.6009 23.0296 38.4651C23.3251 38.4171 23.6226 38.3628 23.9077 38.2772C23.9912 38.2521 24.0643 38.2176 24.1249 38.1748C24.5906 38.4912 25.0395 38.4588 25.6201 38.0976C25.9949 37.8647 26.3666 37.6288 26.7467 37.3886C26.8814 37.4502 26.9963 37.5035 27.1122 37.5557C27.2218 38.0297 27.322 38.486 27.4338 38.9402C27.606 39.6377 28.0279 39.9854 28.7369 39.9927C29.5836 40.0021 30.4304 40.0021 31.2762 39.9937C31.9935 39.9864 32.4164 39.6471 32.5887 38.9527C32.7035 38.487 32.8069 38.0193 32.9176 37.5463C33.0523 37.493 33.1692 37.446 33.2987 37.3949C33.6944 37.6455 34.0766 37.8908 34.4629 38.1299C35.1092 38.5309 35.647 38.4745 36.191 37.9389C36.7673 37.3729 37.3374 36.8018 37.9044 36.2265C38.4912 35.6324 38.5424 35.1166 38.0965 34.4044C37.8626 34.0306 37.6277 33.6589 37.3886 33.2799C37.4523 33.1431 37.5045 33.0283 37.5567 32.9155C38.0328 32.8048 38.4891 32.7035 38.9423 32.5908C39.6429 32.4174 39.9854 31.9987 39.9937 31.2866C40.0031 30.4398 40.0021 29.593 39.9937 28.7473ZM21.2953 37.468C21.0509 37.4857 20.8056 37.4982 20.5602 37.5035C19.4941 37.5849 18.428 37.5578 17.3672 37.4345C14.9229 37.1516 12.6007 36.4489 10.4759 35.1969C4.8469 31.8828 1.78548 26.9357 1.25401 20.4391C1.10261 18.5888 1.31771 16.7512 1.774 14.9437C4.07319 5.83362 12.9891 -0.144091 22.495 1.49208C26.5389 2.18852 29.9836 4.06589 32.7516 7.10329C35.8882 10.5437 37.4836 14.6148 37.5327 19.278C37.539 19.8888 37.4815 20.4996 37.4606 21.1104C37.4596 21.147 37.4596 21.1825 37.4627 21.2169C37.4638 21.219 37.4638 21.2211 37.4627 21.2222C37.4272 21.857 37.35 22.4887 37.2268 23.1152C36.8864 22.7727 36.5428 22.4323 36.1983 22.093C36.1283 22.0241 36.0584 21.9625 35.9884 21.9103C36.0208 21.738 36.0458 21.5636 36.0688 21.3903C36.1398 20.8557 36.1899 20.3221 36.2171 19.7896C36.2275 19.5912 36.2348 19.3928 36.238 19.1944C36.2338 18.995 36.2275 18.7966 36.2171 18.5982C36.169 17.6199 36.0458 16.6488 35.8266 15.6903C34.0964 8.11089 27.652 3.03949 20.5403 2.5759C17.906 2.40466 15.3771 2.81187 12.9453 3.81425C5.57467 6.8527 1.31666 14.667 2.83275 22.4574C3.93537 28.1198 7.16803 32.193 12.3605 34.6926C14.2807 35.6177 16.322 36.0761 18.4364 36.2108C18.4448 36.2108 18.4541 36.2119 18.4625 36.2119C18.8833 36.2338 19.3062 36.239 19.7301 36.2306C20.2313 36.2213 20.7346 36.1899 21.2389 36.1409C21.4801 36.1168 21.7213 36.0907 21.9583 36.0458C21.9969 36.0939 22.0397 36.1409 22.0867 36.1889C22.425 36.5314 22.7644 36.8728 23.1058 37.2132C22.5065 37.3406 21.9019 37.4231 21.2953 37.468ZM35.0362 19.6873C35.0059 20.3555 34.9297 21.0206 34.8002 21.6837C34.797 21.6983 34.7939 21.7129 34.7908 21.7286C34.677 21.7724 34.56 21.833 34.4379 21.9092C34.0536 22.1494 33.6704 22.3916 33.2893 22.6307C33.1557 22.5754 33.0492 22.5315 32.9155 22.4751C32.8038 21.9927 32.7035 21.5354 32.5908 21.0823C32.4185 20.3816 31.9987 20.0392 31.2866 20.0318C30.4409 20.0224 29.5941 20.0235 28.7473 20.0318C28.0341 20.0381 27.6081 20.3806 27.4369 21.0739C27.321 21.5396 27.2176 22.0074 27.109 22.473C26.9837 22.5294 26.8793 22.5754 26.7446 22.6359C26.3531 22.3885 25.9605 22.1368 25.5627 21.8925C24.909 21.4926 24.3807 21.55 23.8357 22.0878C23.2603 22.6537 22.6902 23.2269 22.1222 23.8002C21.5344 24.3922 21.4822 24.9038 21.9301 25.6201C22.1629 25.9939 22.3989 26.3667 22.637 26.7446C22.5743 26.8825 22.5211 26.9973 22.4647 27.1195C22.0324 27.2155 21.6137 27.3043 21.1961 27.4004C20.3608 27.5935 20.0329 28.0018 20.0298 28.8538C20.0277 29.5962 20.0287 30.3386 20.0298 31.0809C20.0308 32.0551 20.3503 32.4477 21.2994 32.6482C21.692 32.7317 22.0825 32.8226 22.4783 32.9113C22.5336 33.0512 22.5806 33.1682 22.6307 33.2945C22.3791 33.6923 22.1347 34.0755 21.8956 34.4619C21.809 34.6007 21.7442 34.7344 21.7004 34.8639C21.6597 34.8701 21.6189 34.8774 21.5782 34.8837C20.9799 34.9787 20.3795 35.0309 19.7802 35.0445C19.7583 35.0414 19.7353 35.0393 19.7123 35.0372C19.5964 35.0299 19.4785 35.0341 19.3615 35.0362C18.025 35.056 16.7115 34.8754 15.4241 34.5339C8.25811 32.6336 3.70252 26.2163 3.7328 19.4012C3.71088 18.2244 3.8581 17.0654 4.116 15.919C5.83988 8.26124 13.0883 2.87348 21.2702 3.83513C24.1228 4.1703 26.7175 5.21444 28.9676 7.00828C32.9364 10.172 34.962 14.311 35.0362 19.3949C35.0362 19.492 35.032 19.5902 35.0362 19.6873ZM38.7617 31.4078C38.2991 31.5164 37.8282 31.6636 37.3468 31.7294C36.8425 31.7983 36.5804 32.0572 36.4008 32.5208C36.0187 33.5086 36.0187 33.3446 36.5491 34.1925C36.7621 34.5329 36.9772 34.8701 37.1714 35.1792C36.499 35.8506 35.8558 36.4906 35.1782 37.1672C34.7918 36.9229 34.3533 36.6713 33.944 36.3789C33.5754 36.1158 33.235 36.0897 32.8184 36.2787C31.8233 36.7308 31.91 36.5303 31.6615 37.6789C31.5853 38.0339 31.4976 38.3858 31.4099 38.7606H28.6116C28.4957 38.2427 28.3683 37.7405 28.2753 37.2309C28.2012 36.8321 27.9945 36.593 27.6144 36.4447C26.4679 35.9968 26.7373 35.9926 25.7339 36.6107C25.4259 36.8008 25.1231 36.9981 24.8453 37.1756C24.174 36.5 23.5349 35.8568 22.8573 35.175C23.1079 34.7783 23.3679 34.3303 23.6655 33.9085C23.9087 33.5629 23.9338 33.2455 23.7615 32.8549C23.3 31.8108 23.4848 31.9037 22.3081 31.6542C21.9656 31.5811 21.6273 31.4923 21.265 31.4067V28.6126C21.7839 28.4967 22.2872 28.3683 22.7957 28.2743C23.1945 28.2002 23.4337 27.9934 23.5798 27.6113C24.01 26.4899 24.0549 26.7551 23.4138 25.7318C23.2227 25.4248 23.0275 25.121 22.8604 24.8568C23.5339 24.1792 24.1729 23.5349 24.8474 22.8552C25.2369 23.1016 25.6754 23.3522 26.0847 23.6446C26.4533 23.9087 26.7937 23.9348 27.2103 23.749C28.2231 23.2969 28.1208 23.4545 28.3641 22.3436C28.4414 21.9896 28.528 21.6367 28.6157 21.2639H31.4078C31.5184 21.7401 31.6594 22.2245 31.7367 22.7195C31.8098 23.1872 32.0499 23.4378 32.4874 23.607C33.4971 23.9996 33.3165 24.0351 34.2614 23.4347C34.5767 23.2332 34.8941 23.0348 35.1792 22.8542C35.8516 23.5287 36.4917 24.1708 37.1683 24.8495C36.9177 25.2463 36.6587 25.6963 36.3601 26.1181C36.1158 26.4638 36.096 26.7801 36.2651 27.1717C36.736 28.2607 36.5857 28.1145 37.682 28.363C38.0349 28.4424 38.3878 28.5259 38.7617 28.6126V31.4078Z" fill="#039E2A"/>
<path id="Vector_5" d="M18.7789 19.0368V18.5481C18.7789 15.8135 18.7789 13.0778 18.7789 10.3432C18.7789 10.2127 18.7705 10.0812 18.7904 9.95377C18.8374 9.6447 19.0838 9.41708 19.3657 9.40768C19.658 9.39724 19.9233 9.63426 19.9765 9.96003C19.9911 10.0488 19.987 10.1417 19.987 10.2326C19.987 13.2021 19.9828 16.1716 19.9922 19.1412C19.9932 19.5536 19.8397 19.8188 19.4805 20.0224C17.9864 20.8703 16.5027 21.7369 15.0137 22.5931C14.5407 22.8656 14.1961 22.8176 14.003 22.4688C13.8161 22.1305 13.9466 21.8392 14.4175 21.5667C15.7008 20.8222 16.9871 20.0819 18.2714 19.3396C18.4291 19.2487 18.5836 19.1537 18.7789 19.0388V19.0368Z" fill="#039E2A"/>
<path id="Vector_6" d="M18.7831 6.2513C18.7831 6.04247 18.7684 5.83364 18.7862 5.6269C18.8175 5.27398 19.0838 5.02339 19.3928 5.02966C19.6883 5.03592 19.9567 5.27607 19.9744 5.60811C19.9984 6.03621 19.9984 6.46744 19.9744 6.89658C19.9556 7.22862 19.6852 7.46877 19.3907 7.47399C19.0806 7.48026 18.8154 7.22862 18.7851 6.8757C18.7674 6.66896 18.782 6.45909 18.782 6.2513H18.7831Z" fill="#039E2A"/>
<path id="Vector_7" d="M6.28469 19.9848C6.07586 19.9848 5.86703 19.9963 5.66029 19.9828C5.28544 19.9567 5.02023 19.6883 5.03172 19.3667C5.0432 19.0545 5.29588 18.8018 5.65611 18.7862C6.05915 18.7684 6.46428 18.7674 6.86627 18.7862C7.22441 18.8039 7.47396 19.067 7.47605 19.3803C7.47814 19.6894 7.22441 19.9504 6.87149 19.9807C6.67728 19.9974 6.48098 19.9838 6.28573 19.9838L6.28469 19.9848Z" fill="#039E2A"/>
<path id="Vector_8" d="M13.7294 8.56714C13.6981 8.81251 13.5822 9.01716 13.341 9.10069C13.1082 9.18109 12.8461 9.16543 12.703 8.94407C12.4284 8.52015 12.1768 8.07848 11.9481 7.62845C11.8353 7.4071 11.9617 7.13144 12.1757 6.98422C12.3741 6.84744 12.7302 6.82133 12.8586 7.01241C13.175 7.48332 13.4381 7.98973 13.7211 8.48361C13.7325 8.50344 13.7263 8.53477 13.7294 8.56714Z" fill="#039E2A"/>
<path id="Vector_9" d="M26.138 6.89237C26.6778 6.87984 26.9837 7.29436 26.7958 7.68696C26.5953 8.10775 26.3552 8.51183 26.0994 8.90338C25.9292 9.16337 25.5888 9.20723 25.3361 9.05478C25.0771 8.89921 24.9633 8.59327 25.1064 8.31553C25.3131 7.91145 25.5376 7.51363 25.7892 7.1367C25.878 7.00305 26.0691 6.93831 26.138 6.89341V6.89237Z" fill="#039E2A"/>
<path id="Vector_10" d="M31.2271 11.8979C31.531 11.9282 31.7294 12.0358 31.8369 12.2718C31.9392 12.4962 31.8912 12.8043 31.6782 12.9421C31.2647 13.2094 30.8345 13.4537 30.396 13.6782C30.1684 13.7941 29.8938 13.6876 29.7434 13.4788C29.591 13.2668 29.5534 13.0058 29.7236 12.8262C30.1496 12.3772 30.7228 12.1485 31.2271 11.8979Z" fill="#039E2A"/>
<path id="Vector_11" d="M13.7263 30.2654C13.7043 30.3281 13.6824 30.4325 13.6333 30.5223C13.4381 30.8742 13.2428 31.2281 13.0288 31.5685C12.8325 31.8807 12.5078 31.9663 12.2227 31.8076C11.9241 31.6416 11.8301 31.3075 12.0118 30.9692C12.2081 30.6027 12.4159 30.2414 12.6404 29.8927C12.798 29.6473 13.0695 29.5711 13.3253 29.6556C13.5488 29.7298 13.7325 29.9929 13.7252 30.2665L13.7263 30.2654Z" fill="#039E2A"/>
<path id="Vector_12" d="M8.53377 13.7273C8.50975 13.7221 8.45337 13.7221 8.41056 13.6981C7.95949 13.4422 7.49798 13.2031 7.06675 12.917C6.84644 12.7709 6.83182 12.4346 6.96651 12.2081C7.11374 11.9596 7.41027 11.8301 7.66713 11.9596C8.09523 12.1757 8.51289 12.4159 8.91697 12.6748C9.13415 12.8137 9.19262 13.1092 9.10805 13.341C9.03287 13.5456 8.78332 13.7221 8.53481 13.7273H8.53377Z" fill="#039E2A"/>
<path id="Vector_13" d="M9.13206 25.6316C9.14459 25.8645 9.03391 26.0357 8.84492 26.1495C8.48887 26.3636 8.13178 26.5786 7.76215 26.7697C7.44369 26.9337 7.11478 26.8282 6.95712 26.5442C6.80676 26.2727 6.87881 25.9407 7.1649 25.76C7.5387 25.5251 7.91982 25.2975 8.31659 25.1064C8.71232 24.9153 9.12997 25.2014 9.13206 25.6316Z" fill="#039E2A"/>
<path id="Vector_14" d="M34.9923 30.0138C34.9829 32.7474 32.7307 34.9975 30.0107 34.9913C27.2625 34.9839 25.0114 32.715 25.0322 29.9731C25.0531 27.25 27.322 25.0176 30.0514 25.0333C32.7495 25.0489 35.0006 27.3189 34.9913 30.0149L34.9923 30.0138ZM30.0201 26.2403C27.9182 26.2403 26.2424 27.9089 26.2403 30.0034C26.2382 32.1021 27.913 33.7853 30.0023 33.7842C32.1011 33.7842 33.779 32.1126 33.7842 30.0191C33.7894 27.9235 32.1126 26.2403 30.0201 26.2403Z" fill="#039E2A"/>
<path id="Vector_15" d="M36.238 19.1945C36.2338 18.995 36.2275 18.7966 36.2171 18.5983C36.2244 18.5962 36.2317 18.593 36.239 18.5909C36.2421 18.7914 36.2421 18.9929 36.238 19.1945Z" fill="#039E2A"/>
</g>
</g>
</g>
<defs>
<clipPath id="clip0_208_131232">
<rect width="40" height="40" fill="white"/>
</clipPath>
</defs>
</svg>
