<svg width="40" height="40" viewBox="0 0 40 40" fill="none" xmlns="http://www.w3.org/2000/svg">
<g id="&#208;&#160;&#208;&#181;&#209;&#129;&#209;&#131;&#209;&#128;&#209;&#129; 2 1">
<g id="&#208;&#161;&#208;&#187;&#208;&#190;&#208;&#185; 1">
<g id="Group">
<path id="Vector" d="M12.9539 26.2338C7.31035 25.87 2.23826 21.168 2.00756 14.781C1.81357 9.39642 5.37043 4.48057 10.495 3.02092C13.7037 2.10653 16.7897 2.44104 19.6964 4.0863C22.6021 5.73155 24.4498 8.22723 25.3578 11.458C26.0195 11.3164 26.6392 11.1832 27.2925 11.0438C27.2736 10.7187 27.2611 10.423 27.239 10.1262C27.0534 7.58548 27.2453 5.08666 28.0695 2.6602C28.3055 1.96393 28.6148 1.30016 29.1035 0.738109C29.4464 0.343834 29.8448 0.0439335 30.3953 0.00408655C30.9029 -0.0315659 31.3118 0.168717 31.6704 0.501124C32.1109 0.909031 32.4066 1.41655 32.6477 1.95658C33.1364 3.05028 33.3985 4.20689 33.5904 5.38342C33.8526 6.99198 33.8536 8.61207 33.819 10.2332C33.8117 10.5845 33.7718 10.9347 33.7467 11.2829C34.3968 12.0578 34.5436 13.0225 34.8288 13.9253C35.5482 16.2039 36.2235 18.4962 36.9502 20.7727C37.1787 21.49 37.097 22.1065 36.7226 22.7514C33.5936 28.1444 30.4698 33.5405 27.3733 38.9513C26.7441 40.0513 25.5938 40.2547 24.6438 39.7C20.3539 37.1959 16.0463 34.7244 11.7449 32.2402C10.6952 31.6341 10.4352 30.6631 11.036 29.6051C11.5918 28.6278 12.1538 27.6547 12.7117 26.6784C12.7882 26.5453 12.8575 26.4079 12.9518 26.2317L12.9539 26.2338ZM27.4184 11.977C27.2852 11.9917 27.1688 11.9938 27.0566 12.0179C25.4103 12.3713 23.765 12.7352 22.1166 13.0781C21.7265 13.1588 21.457 13.3476 21.2641 13.6936C20.8572 14.4245 20.4305 15.1449 20.0121 15.8694C17.293 20.5798 14.573 25.289 11.855 29.9994C11.4649 30.6757 11.5687 31.1004 12.2147 31.4737C16.5055 33.9516 20.7964 36.4284 25.0894 38.9041C25.7616 39.2921 26.1925 39.1725 26.5826 38.4972C29.7085 33.0854 32.8312 27.6725 35.9624 22.2649C36.1889 21.8737 36.2371 21.5141 36.0955 21.0758C35.6415 19.6717 35.2242 18.2561 34.7911 16.8457C34.3769 15.4972 33.9648 14.1487 33.5443 12.8023C33.1542 11.5523 32.1654 10.9599 30.8829 11.2032C30.4981 11.2755 30.1154 11.3605 29.7326 11.4443C29.3279 11.5324 28.9252 11.6268 28.4523 11.7348C28.6767 12.7383 28.8916 13.6999 29.0972 14.6174C30.9196 15.1847 31.7889 16.1935 31.6799 17.5441C31.5708 18.902 30.6155 19.9768 29.3677 20.1467C28.0402 20.3281 26.8081 19.6161 26.3561 18.4008C26.1349 17.8062 26.1107 17.2054 26.31 16.5951C26.5973 15.7143 27.2107 15.1491 28.0381 14.803C27.8284 13.8477 27.626 12.9229 27.4184 11.976V11.977ZM22.0673 12.1196C21.0806 8.14334 16.7551 4.90211 11.7942 6.09752C7.12579 7.22267 4.31449 12.0746 5.65041 16.7387C6.30893 19.0383 7.7193 20.7675 9.81965 21.9063C11.4125 22.7693 13.1165 23.0943 14.8959 22.8552C15.006 22.6728 15.0899 22.5396 15.1686 22.4033C16.8946 19.4305 18.63 16.4619 20.3392 13.4786C20.7167 12.8191 21.1655 12.3084 21.9488 12.1805C21.9845 12.1742 22.016 12.1459 22.0684 12.1175L22.0673 12.1196ZM14.2437 24.0066C11.6295 24.0192 9.374 23.2558 7.47708 21.5644C5.57806 19.8709 4.49904 17.736 4.28513 15.2057C3.92021 10.876 6.44001 6.91018 10.4855 5.39076C12.4684 4.64625 14.4985 4.55397 16.5255 5.16636C19.9554 6.20447 22.1198 8.53342 23.1778 11.9351C23.5763 11.8418 23.9234 11.76 24.2694 11.6782C23.1096 6.78855 18.0417 2.75352 12.0553 3.75179C6.52914 4.67351 2.41757 9.80223 3.15473 15.7101C3.92231 21.8622 9.26494 25.2073 13.602 25.1276C13.797 24.7868 14.0015 24.4302 14.2437 24.0066ZM28.3789 10.7711C28.5194 10.7596 28.6358 10.7607 28.7459 10.7376C29.2566 10.6306 29.7662 10.5174 30.2758 10.4052C30.8641 10.2752 31.4523 10.1451 32.0563 10.3014C32.2671 10.3559 32.4768 10.4125 32.7065 10.4733C32.7274 10.3632 32.7515 10.2888 32.7536 10.2133C32.8071 8.31636 32.7673 6.42363 32.3562 4.56027C32.1402 3.57668 31.8749 2.60462 31.3401 1.73638C30.7865 0.836677 30.1898 0.819899 29.6739 1.73638C29.3499 2.31101 29.0972 2.93808 28.9032 3.57038C28.2688 5.63089 28.1671 7.75326 28.273 9.89241C28.2866 10.1755 28.339 10.4566 28.3778 10.7722L28.3789 10.7711ZM28.339 15.7195C27.5662 15.8978 26.9958 16.745 27.0849 17.6122C27.1803 18.5339 27.9406 19.2397 28.8707 19.2701C29.7463 19.2984 30.5296 18.7059 30.6732 17.8649C30.1101 17.8052 29.6162 17.564 29.2723 17.1162C28.9336 16.6758 28.6515 16.1924 28.339 15.7195ZM29.7137 15.8265C29.8847 16.2218 30.0975 16.5741 30.5537 16.6936C30.4278 16.2553 30.1437 15.9701 29.7137 15.8265Z" fill="#039E2A"/>
<path id="Vector_2" d="M26.3739 32.8903C26.3425 32.969 26.3037 33.1084 26.2345 33.229C25.7165 34.1371 25.1964 35.0441 24.6689 35.9459C24.4267 36.3601 24.1782 36.4241 23.7587 36.1829C20.9275 34.5523 18.0973 32.9207 15.2703 31.2849C14.8467 31.0395 14.7848 30.8025 15.027 30.3747C15.544 29.4656 16.0672 28.5606 16.5947 27.6588C16.8411 27.2373 17.0791 27.1723 17.507 27.4187C20.3382 29.0482 23.1673 30.683 25.9964 32.3157C26.1978 32.4321 26.3593 32.5736 26.3739 32.8903ZM25.123 33.0382C22.5004 31.524 19.9271 30.0381 17.3151 28.5302C16.9166 29.2244 16.5391 29.8829 16.1469 30.5666C18.7726 32.0808 21.3438 33.5646 23.9485 35.0672C24.347 34.3793 24.7182 33.7386 25.123 33.0382Z" fill="#039E2A"/>
<path id="Vector_3" d="M20.1379 22.0206C20.3109 22.0982 20.4336 22.1412 20.5437 22.2041C23.3519 23.8231 26.16 25.4432 28.9671 27.0644C29.0458 27.1094 29.1297 27.1545 29.1936 27.2175C29.3635 27.381 29.4138 27.5761 29.2754 27.7816C29.1444 27.9756 28.9608 28.0532 28.7323 27.9546C28.6484 27.919 28.5676 27.8739 28.489 27.8288C25.7049 26.2202 22.9198 24.6127 20.1369 23.0021C20.0362 22.9434 19.8999 22.8899 19.8579 22.7976C19.795 22.6571 19.7426 22.4652 19.7919 22.3331C19.8401 22.203 20.0184 22.1212 20.139 22.0195L20.1379 22.0206Z" fill="#039E2A"/>
<path id="Vector_4" d="M25.2981 27.7145C25.2928 28.0417 25.0779 28.2325 24.801 28.1822C24.6773 28.1591 24.5557 28.0951 24.4445 28.0312C22.6451 26.9952 20.8468 25.956 19.0484 24.9168C18.9582 24.8644 18.8628 24.8151 18.7873 24.7449C18.6153 24.5823 18.5702 24.3841 18.7076 24.1818C18.8376 23.992 19.0169 23.9028 19.2487 24.0077C19.3315 24.0454 19.4133 24.0874 19.493 24.1325C21.3029 25.1769 23.1128 26.2223 24.9227 27.2668C25.1209 27.381 25.3096 27.4974 25.297 27.7145H25.2981Z" fill="#039E2A"/>
<path id="Vector_5" d="M24.3806 21.9052C24.5305 21.9817 24.6836 22.053 24.8304 22.1369C26.5386 23.1205 28.2447 24.1062 29.9507 25.0919C30.064 25.1569 30.1814 25.2187 30.2789 25.3026C30.4593 25.4557 30.5117 25.6487 30.3838 25.8615C30.259 26.0692 30.0692 26.1268 29.8438 26.0482C29.7463 26.0146 29.655 25.9601 29.5648 25.9087C27.8126 24.8979 26.0594 23.8881 24.3092 22.873C24.1876 22.8028 24.0586 22.7189 23.9768 22.6088C23.7776 22.3393 23.9202 22.0771 24.3785 21.9052H24.3806Z" fill="#039E2A"/>
<path id="Vector_6" d="M22.7374 21.9691C22.1921 21.6514 21.6039 21.3211 21.0313 20.9667C20.808 20.8283 20.7755 20.5881 20.896 20.3857C21.0198 20.1771 21.2568 20.1026 21.5105 20.2274C21.7905 20.3648 22.0547 20.5326 22.3263 20.6877C22.5298 20.8041 22.73 20.9258 22.9345 21.0401C23.1296 21.1491 23.2648 21.2886 23.2449 21.534C23.2239 21.7846 23.0625 21.8915 22.7395 21.9702L22.7374 21.9691Z" fill="#039E2A"/>
<path id="Vector_7" d="M27.7979 29.8872C27.7854 29.8872 27.7696 29.8924 27.7591 29.8872C27.2338 29.5852 26.6969 29.3 26.1904 28.9697C26.03 28.8648 26.0646 28.6373 26.1883 28.4737C26.3079 28.3164 26.483 28.2094 26.6634 28.3049C27.1562 28.567 27.6428 28.8428 28.1062 29.1532C28.2027 29.2182 28.252 29.474 28.2059 29.5999C28.1555 29.7393 27.971 29.8306 27.8451 29.9428C27.8294 29.925 27.8137 29.9061 27.7979 29.8882V29.8872Z" fill="#039E2A"/>
<path id="Vector_8" d="M13.3167 8.81337C13.3167 8.4537 13.3052 8.09089 13.3199 7.72807C13.3335 7.38623 13.4856 7.19538 13.7414 7.14819C14.0969 7.08318 14.3538 7.28137 14.3695 7.65886C14.3853 8.03531 14.3727 8.41281 14.3727 8.81023C14.5572 8.87 14.703 8.91614 14.8488 8.96542C16.0536 9.37962 16.8925 10.5215 16.8988 11.7526C16.9009 12.1595 16.7058 12.3902 16.3671 12.3797C16.1165 12.3723 15.9341 12.2203 15.8795 11.955C15.8376 11.7505 15.8302 11.5376 15.7778 11.3363C15.5167 10.3391 14.4681 9.68686 13.4793 9.89868C12.4181 10.1262 11.7218 11.1193 11.8728 12.1647C11.9766 12.8851 12.3646 13.3685 13.0473 13.5919C13.5674 13.7617 14.099 13.898 14.6306 14.0323C16.3776 14.4727 17.0833 15.4594 16.86 17.371C16.7174 18.5947 15.9582 19.3948 14.8068 19.8185C14.6852 19.8636 14.5604 19.8982 14.3769 19.9569C14.3769 20.2106 14.3769 20.4675 14.3769 20.7245C14.3769 20.8681 14.3821 21.0128 14.3685 21.1554C14.3412 21.4406 14.1609 21.62 13.8966 21.6399C13.6313 21.6598 13.4101 21.5141 13.3566 21.233C13.3136 21.0044 13.323 20.7653 13.3157 20.5315C13.3105 20.3501 13.3146 20.1676 13.3146 19.9621C13.1773 19.9139 13.0588 19.8688 12.9382 19.83C11.726 19.4368 10.8892 18.3682 10.798 17.0963C10.7697 16.6968 10.9448 16.4367 11.2646 16.4042C11.574 16.3728 11.7984 16.5416 11.8487 16.8499C11.8802 17.0428 11.8885 17.241 11.9368 17.4297C12.1822 18.3871 13.171 19.0425 14.1137 18.8852C15.1822 18.7059 15.911 17.8303 15.8481 16.8016C15.7935 15.9156 15.4202 15.4112 14.5572 15.1344C13.9868 14.9508 13.3964 14.8261 12.8218 14.6541C12.5481 14.5723 12.2786 14.4622 12.027 14.328C11.144 13.854 10.8588 13.0361 10.799 12.1049C10.7057 10.6621 11.5624 9.40269 12.9403 8.9455C13.0504 8.9088 13.1595 8.87 13.3178 8.81442L13.3167 8.81337Z" fill="#039E2A"/>
</g>
</g>
</g>
</svg>
