<svg width="40" height="40" viewBox="0 0 40 40" fill="none" xmlns="http://www.w3.org/2000/svg">
<g id="&#208;&#160;&#208;&#181;&#209;&#129;&#209;&#131;&#209;&#128;&#209;&#129; 3 2" clip-path="url(#clip0_208_131223)">
<g id="&#208;&#161;&#208;&#187;&#208;&#190;&#208;&#185; 1">
<g id="Group">
<path id="Vector" d="M23.7085 36.5557C23.6147 37.1122 23.5359 37.5695 23.4594 38.0268C23.3839 38.4766 23.3202 38.9295 23.2339 39.3771C23.1498 39.815 22.9535 39.993 22.5264 39.9951C20.845 40.0016 19.1635 40.0016 17.481 39.9951C17.0517 39.993 16.849 39.8172 16.7724 39.3793C16.6085 38.4399 16.4618 37.4983 16.3075 36.5568C16.2924 36.4662 16.2676 36.3766 16.2385 36.2472C14.4449 35.8158 12.7494 35.1212 11.164 34.1365C10.629 34.5215 10.1178 34.8893 9.60657 35.2582C9.25712 35.5095 8.91414 35.7705 8.55822 36.0121C8.24976 36.2224 7.94346 36.2019 7.68029 35.9409C6.46693 34.7373 5.25897 33.5293 4.05639 32.3159C3.7846 32.042 3.77705 31.7389 4.01433 31.4046C4.52879 30.6809 5.05404 29.9647 5.57282 29.2453C5.66666 29.1159 5.7551 28.9832 5.82304 28.884C5.40241 28.0255 4.96129 27.2241 4.61184 26.3829C4.26347 25.5427 4.00786 24.6626 3.68861 23.7361C3.1515 23.6477 2.5583 23.5495 1.9651 23.4525C1.50133 23.3759 1.03648 23.309 0.574862 23.2206C0.19198 23.1473 0.00754979 22.9423 0.00647125 22.5551C-0.00215708 20.8467 -0.00215708 19.1383 0.00647125 17.4299C0.00862833 17.0481 0.196294 16.8443 0.587805 16.7763C1.54016 16.6102 2.49574 16.4614 3.44917 16.3039C3.53977 16.2888 3.62821 16.2618 3.75332 16.2327C4.18366 14.4359 4.87932 12.7415 5.86619 11.1603C5.31829 10.4032 4.80598 9.66225 4.26024 8.94826C3.6541 8.15661 3.75979 7.95061 4.37241 7.3531C5.42291 6.32956 6.44968 5.2823 7.48723 4.2469C8.00925 3.72596 8.18936 3.7141 8.8009 4.15522C9.57421 4.71391 10.3464 5.27367 11.1564 5.85932C12.7343 4.89618 14.4201 4.18111 16.2536 3.75077C16.3528 3.14355 16.451 2.55035 16.5481 1.95715C16.6225 1.50632 16.6883 1.05442 16.7746 0.606821C16.8533 0.192661 17.0507 0.00715206 17.454 0.00607352C19.1495 -0.00255481 20.8439 -0.00147627 22.5394 0.00607352C22.9481 0.0082306 23.1563 0.18619 23.2275 0.596036C23.3936 1.54839 23.5424 2.50397 23.6999 3.45741C23.715 3.548 23.7441 3.63644 23.7581 3.69576C24.6501 4.00207 25.528 4.25768 26.3682 4.60605C27.2094 4.95442 28.013 5.39447 28.8876 5.82049C28.9718 5.76333 29.1055 5.6792 29.2339 5.58645C29.9317 5.08277 30.6273 4.57477 31.3252 4.07217C31.7727 3.74969 32.0348 3.76695 32.4231 4.15306C33.5664 5.29308 34.7075 6.43418 35.8475 7.57743C36.2347 7.96571 36.2562 8.23103 35.937 8.67431C35.3492 9.49292 34.756 10.3072 34.1391 11.1593C35.1162 12.735 35.8184 14.4262 36.2519 16.2521C36.8516 16.3514 37.4308 16.4484 38.0121 16.5433C38.4629 16.6178 38.9148 16.6814 39.3635 16.7666C39.8402 16.8572 39.9977 17.0513 40.0009 17.541C40.0063 18.3747 40.0031 19.2095 40.0031 20.0432C40.0031 20.837 40.0052 21.6308 40.0031 22.4246C40.0009 22.9617 39.8521 23.1526 39.3236 23.2465C38.5708 23.3813 37.8126 23.4935 37.0576 23.6186C36.9282 23.6401 36.8009 23.6736 36.5981 23.7178C39.1392 25.9687 40.3116 28.7201 39.9093 32.0506C39.6461 34.2239 38.6614 36.0639 37.0554 37.5576C35.8162 38.7095 34.3623 39.458 32.7024 39.8032C31.0296 40.1505 29.3881 40.0275 27.7811 39.4559C26.1881 38.8896 24.8668 37.9254 23.7085 36.5611V36.5557ZM5.31829 8.27201C5.35172 8.32486 5.3981 8.40683 5.45203 8.48233C5.97943 9.2125 6.5036 9.94591 7.03856 10.6707C7.2575 10.9673 7.28339 11.2509 7.07415 11.5616C6.92423 11.7837 6.78726 12.0167 6.65136 12.2486C5.82089 13.6626 5.24495 15.1758 4.90089 16.7774C4.82 17.1527 4.63233 17.3695 4.23867 17.4202C3.78568 17.4784 3.33809 17.5658 2.88725 17.6413C2.34906 17.7308 1.81195 17.8203 1.27807 17.9099V22.073C1.36435 22.0935 1.42799 22.1108 1.49162 22.1216C2.40515 22.2747 3.31759 22.4365 4.23435 22.5735C4.62586 22.6317 4.81892 22.8366 4.89981 23.213C5.29887 25.0714 6.0064 26.8046 7.05258 28.3944C7.27584 28.733 7.2629 29.0296 7.02022 29.3543C6.51223 30.0327 6.02257 30.724 5.52752 31.411C5.4434 31.5275 5.3679 31.6515 5.28809 31.7713C5.32044 31.7551 5.35172 31.7389 5.38408 31.7217C6.35908 32.6934 7.33408 33.6652 8.33173 34.6596C9.04465 34.1451 9.81796 33.5854 10.5924 33.0278C11.0648 32.687 11.1705 32.6891 11.6806 32.9965C12.084 33.2392 12.4863 33.484 12.9026 33.7019C14.0857 34.3242 15.3282 34.7955 16.6419 35.0533C17.1531 35.1536 17.4292 35.407 17.4659 35.9301C17.4832 36.1706 17.5306 36.409 17.5694 36.6474C17.6805 37.3333 17.7949 38.0193 17.9103 38.7171H22.1004C22.191 38.1616 22.2622 37.6299 22.3668 37.1047C22.4941 36.4651 22.4671 35.791 22.7766 35.2345C22.4692 34.418 22.1727 33.6307 21.8599 32.797C19.3609 33.1076 16.9234 32.8099 14.6067 31.7324C12.3029 30.6604 10.4608 29.0544 9.0975 26.9103C7.72775 24.7543 7.07739 22.3955 7.09141 19.8383C7.12592 13.4188 12.1131 7.64538 19.0233 7.11582C22.3938 6.85697 25.4611 7.77696 28.0798 9.93081C31.8461 13.0295 33.3291 17.0837 32.8232 21.8584C33.658 22.1723 34.4464 22.4689 35.1324 22.7266C35.6825 22.6188 36.1495 22.5185 36.6197 22.4376C37.3175 22.3168 38.0175 22.2078 38.725 22.0935V17.9077C38.5136 17.8689 38.3303 17.8311 38.1448 17.8009C37.3628 17.6737 36.582 17.5356 35.7979 17.4256C35.3923 17.3684 35.1885 17.1635 35.1033 16.7666C34.7064 14.9223 34.0053 13.1999 32.9678 11.6209C32.737 11.2693 32.7391 10.9662 32.9947 10.6275C33.5049 9.9513 33.9935 9.25888 34.4885 8.57077C34.5726 8.45429 34.646 8.33133 34.6805 8.27848C33.6742 7.27113 32.7068 6.30475 31.7177 5.31465C31.6401 5.3675 31.5182 5.44731 31.3996 5.53252C30.7125 6.02865 30.0212 6.51938 29.3417 7.02414C29.03 7.25603 28.7431 7.2625 28.4152 7.05542C27.973 6.775 27.5211 6.50644 27.0574 6.26269C25.8494 5.62743 24.5713 5.1766 23.2372 4.89618C22.8403 4.81313 22.6192 4.61468 22.576 4.20591C22.5469 3.92549 22.4865 3.64939 22.4401 3.37112C22.3247 2.67331 22.2104 1.97441 22.0961 1.27983H17.9059C17.7388 2.29258 17.5705 3.27082 17.4206 4.25337C17.3634 4.6287 17.1553 4.8099 16.8004 4.89294C16.2784 5.0159 15.7553 5.14532 15.2441 5.30818C14.0221 5.69754 12.8692 6.24112 11.7852 6.92815C11.1413 7.33476 11.1003 7.3326 10.4964 6.89795C9.90748 6.47301 9.32075 6.04483 8.73187 5.61988C8.57117 5.5034 8.40399 5.39446 8.28104 5.30926C7.28662 6.3026 6.31917 7.26897 5.31721 8.26986L5.31829 8.27201ZM22.1478 27.8896H21.6355C19.0794 27.8896 16.5233 27.8896 13.9671 27.8896C13.2466 27.8896 13.0719 27.7116 13.0719 26.9815C13.0719 25.2321 13.0956 23.4827 13.0633 21.7354C13.0396 20.4638 13.6177 19.5859 14.6789 18.9701C15.3261 18.5947 16.0347 18.3898 16.7616 18.241C17.2513 18.1407 17.7442 18.0565 18.2629 17.9605C18.2112 17.8829 18.1961 17.843 18.168 17.8182C16.7541 16.5703 16.3356 14.9773 16.6462 13.1805C16.8684 11.8894 17.6428 11.0115 18.9338 10.6933C19.4202 10.5736 19.9509 10.5434 20.4524 10.5844C21.7509 10.6901 22.713 11.3254 23.1973 12.57C23.8541 14.2579 23.3235 16.4625 21.9871 17.6941C21.9062 17.7686 21.8329 17.8516 21.7197 17.9681C22.274 18.0673 22.7637 18.145 23.249 18.2431C24.1787 18.4297 25.0761 18.7015 25.8311 19.3098C26.5537 19.8911 26.9549 20.6321 26.9376 21.578C26.9323 21.8843 26.9376 22.1906 26.9376 22.5918C28.4476 21.908 29.9673 21.6459 31.5279 21.7171C32.2311 18.0813 30.7729 12.6326 25.652 9.76363C20.9269 7.11689 14.8407 8.16632 11.2708 12.2378C7.57783 16.4495 7.30496 22.5088 10.6279 26.9685C12.2511 29.1472 14.391 30.5967 17.014 31.2999C18.5552 31.713 20.1202 31.8317 21.6851 31.5502C21.724 30.9041 21.7294 30.312 21.8038 29.7274C21.8793 29.131 22.0238 28.5443 22.15 27.8918L22.1478 27.8896ZM22.96 30.8588C22.9147 35.1396 26.4879 38.7699 30.8646 38.7527C35.2305 38.7354 38.7444 35.215 38.7585 30.8416C38.7725 26.5058 35.1691 22.9218 30.8484 22.9488C26.4717 22.9758 22.9557 26.4799 22.9611 30.8588H22.96ZM17.1628 26.6191H22.7874C22.8079 26.4325 22.8413 26.2653 22.8424 26.0981C22.8478 25.0228 22.8403 23.9465 22.85 22.8711C22.8532 22.5012 23.0743 22.2747 23.4054 22.2521C23.7689 22.2283 24.0137 22.4289 24.0504 22.8172C24.0774 23.0976 24.0666 23.3813 24.0687 23.6639C24.0709 23.9669 24.0687 24.2711 24.0687 24.6615C24.6684 24.1471 25.1829 23.7059 25.7113 23.254C25.7113 22.6673 25.7221 22.0763 25.7081 21.4863C25.6952 20.9352 25.4352 20.4843 24.9704 20.2147C24.5228 19.9559 24.0418 19.7197 23.5446 19.5859C21.7078 19.0898 19.8365 18.9808 17.9523 19.2667C17.0895 19.3972 16.232 19.5622 15.4382 19.9558C14.6692 20.3387 14.2616 20.9222 14.2767 21.8131C14.3015 23.2519 14.282 24.6906 14.2853 26.1294C14.2853 26.2869 14.3068 26.4444 14.3198 26.6212H15.9117C15.9214 26.4314 15.9365 26.261 15.9365 26.0895C15.9387 25.135 15.9365 24.1805 15.9387 23.2249C15.9387 23.0642 15.9387 22.9003 15.9667 22.7428C16.0239 22.4085 16.2601 22.2316 16.5944 22.2499C16.9525 22.2704 17.1574 22.5109 17.1596 22.9434C17.165 23.9918 17.1617 25.0412 17.1617 26.0895C17.1617 26.2481 17.1617 26.4077 17.1617 26.618L17.1628 26.6191ZM22.2223 14.3162C22.2266 12.6563 21.5342 11.8517 20.1245 11.7859C18.9963 11.7331 18.0861 12.1957 17.8563 13.3854C17.6503 14.4521 17.8067 15.4788 18.4657 16.3773C19.3167 17.5388 20.6843 17.5378 21.5395 16.3794C22.0281 15.7183 22.2277 14.9622 22.2223 14.3151V14.3162Z" fill="#039E2A"/>
<path id="Vector_2" d="M29.5693 31.2601C29.7354 31.1005 29.8519 30.9937 29.963 30.8805C31.1159 29.7135 32.271 28.5476 33.4197 27.3763C33.9493 26.837 34.5856 26.6558 35.3007 26.8424C36.5388 27.1649 37.0641 28.6392 36.3328 29.6897C36.2412 29.8213 36.1311 29.941 36.0179 30.0564C34.358 31.7433 32.6927 33.4269 31.0361 35.117C30.5486 35.6142 29.9791 35.8342 29.2867 35.7339C28.8995 35.6778 28.5695 35.5063 28.2955 35.2356C27.3885 34.3361 26.476 33.4409 25.5873 32.5231C24.8399 31.7519 24.8636 30.6097 25.6078 29.8806C26.3348 29.1688 27.4672 29.1656 28.2265 29.8925C28.6719 30.3196 29.0926 30.7737 29.5693 31.2601ZM29.6351 34.609C29.8346 34.4677 30.0385 34.3631 30.1916 34.2078C31.8407 32.5468 33.4812 30.8783 35.1227 29.2098C35.2068 29.1246 35.2899 29.0318 35.3492 28.9294C35.497 28.6759 35.4527 28.3955 35.2478 28.1895C35.0504 27.99 34.7495 27.935 34.5079 28.0816C34.3731 28.1636 34.2566 28.2833 34.1445 28.3966C32.8405 29.7167 31.5387 31.0401 30.2348 32.3613C29.7235 32.8801 29.483 32.8768 28.9578 32.3537C28.4336 31.8317 27.918 31.3011 27.3831 30.7899C27.0736 30.4933 26.7112 30.5051 26.4523 30.7812C26.214 31.0358 26.2118 31.4035 26.4901 31.6861C27.3572 32.5684 28.233 33.4431 29.1163 34.3091C29.2425 34.4321 29.4302 34.4925 29.634 34.6079L29.6351 34.609Z" fill="#039E2A"/>
</g>
</g>
</g>
<defs>
<clipPath id="clip0_208_131223">
<rect width="40" height="40" fill="white"/>
</clipPath>
</defs>
</svg>
