<svg width="40" height="40" viewBox="0 0 40 40" fill="none" xmlns="http://www.w3.org/2000/svg">
<g id="&#208;&#160;&#208;&#181;&#209;&#129;&#209;&#131;&#209;&#128;&#209;&#129; 4 1" clip-path="url(#clip0_208_131269)">
<g id="Group">
<path id="Vector" d="M33.4877 15.8385C33.3353 15.3824 33.1765 14.9102 32.9994 14.4563C32.8481 14.0603 32.8481 13.6975 32.9994 13.3144C33.2194 12.7563 33.4115 12.1822 33.6047 11.5951C33.9503 10.5584 33.7152 9.68271 32.9071 8.99157C32.7225 8.83596 32.5401 8.67606 32.3566 8.51722C32.0872 8.28219 31.8082 8.03965 31.527 7.80999C31.2008 7.54598 31.0194 7.22939 30.955 6.81299C30.8541 6.16264 30.7253 5.52302 30.6137 4.98428C30.412 3.99265 29.7959 3.3659 28.8311 3.17058C28.2312 3.05468 27.6099 2.93341 26.9971 2.82931C26.542 2.75633 26.2029 2.56208 25.9282 2.21866C25.5311 1.72499 25.1082 1.24635 24.7112 0.802048C24.0308 0.0443746 23.169 -0.180996 22.2181 0.149547C22.0668 0.202134 21.9144 0.25472 21.761 0.307307C21.3478 0.448968 20.9185 0.594922 20.5021 0.753754C20.0771 0.921172 19.6747 0.919026 19.2336 0.745169C18.9288 0.629264 18.6165 0.521945 18.3149 0.417845C18.0799 0.337356 17.8363 0.253647 17.6002 0.166718C16.5807 -0.201386 15.7049 0.041155 15.002 0.88361C14.914 0.984491 14.8249 1.0843 14.7358 1.18518C14.4354 1.52538 14.1252 1.87739 13.8408 2.23476C13.5618 2.58247 13.2098 2.77887 12.7301 2.85399C12.1334 2.95702 11.5291 3.07829 10.9453 3.19527C9.94726 3.39059 9.34198 4.01304 9.14666 5.04223C9.02969 5.64214 8.90949 6.26245 8.80646 6.87095C8.73348 7.27232 8.56607 7.57174 8.27845 7.81214C7.83737 8.18453 7.38341 8.5741 6.9316 8.96904C6.00972 9.76964 5.79509 10.5627 6.18787 11.7089C6.23724 11.8495 6.28553 11.9911 6.33383 12.1317C6.47978 12.5546 6.63003 12.9914 6.79101 13.4206C6.91657 13.7619 6.91657 14.0764 6.79101 14.4101C6.53237 15.1023 6.33061 15.6733 6.15568 16.2056C5.80689 17.2509 6.04514 18.1277 6.86077 18.8091C7.0475 18.968 7.23209 19.1279 7.41775 19.2867C7.69893 19.5292 7.98869 19.7793 8.27845 20.0208C8.57036 20.2633 8.74207 20.5681 8.80539 20.9523C8.87622 21.358 8.95564 21.7636 9.03291 22.1564C9.06832 22.3367 9.10374 22.5159 9.13808 22.6962C9.36774 23.8767 9.9698 24.4713 11.1535 24.6859C11.2866 24.7095 11.4197 24.7331 11.5528 24.7568C12.0164 24.8383 12.4961 24.9231 12.9619 25.039C13.2323 25.1034 13.4695 25.2204 13.6122 25.3631C13.8955 25.6421 14.151 25.9426 14.4203 26.2614C14.5158 26.3741 14.6124 26.4878 14.7101 26.6005C14.6876 26.7175 14.6672 26.8184 14.6382 26.9171C14.5416 27.2702 14.4472 27.6265 14.3516 27.9828C14.2765 28.265 14.2014 28.5483 14.1241 28.8317C13.7367 30.2751 13.3514 31.7207 12.9651 33.1663C12.5798 34.6119 12.1945 36.0564 11.8071 37.4988C11.8007 37.5224 11.7942 37.5449 11.7867 37.5685C11.7234 37.7832 11.6268 38.1073 11.9348 38.4442L12.0185 38.5355L12.1398 38.5086C12.1859 38.4979 12.2364 38.4904 12.289 38.4807C12.4006 38.4625 12.5272 38.441 12.6549 38.3992C13.1507 38.2242 13.6541 38.0407 14.1413 37.8626C14.3903 37.7724 14.6382 37.6812 14.885 37.5921C14.9859 37.5567 15.0911 37.5245 15.1984 37.4913C15.2123 37.487 15.2263 37.4827 15.2402 37.4784L15.5322 37.8261C16.0387 38.4281 16.5163 38.9959 17.0099 39.5722C17.099 39.673 17.1977 39.7535 17.2847 39.8254C17.3255 39.8587 17.3641 39.8898 17.3974 39.9199L17.4843 40.0004L17.5991 39.9692C18.0381 39.8501 18.1132 39.526 18.1636 39.3125L18.1765 39.2567C18.7421 37.1435 19.3066 35.0379 19.8721 32.9334C19.8861 32.9849 19.9 33.0354 19.9129 33.0879C20.192 34.1214 20.4678 35.156 20.7446 36.1895C21.0183 37.2122 21.2909 38.2339 21.5678 39.2599C21.5731 39.2813 21.5796 39.3039 21.585 39.3264C21.6418 39.54 21.7266 39.8619 22.1881 39.9424L22.2922 39.9607L22.3695 39.8888C22.8191 39.4745 23.2141 38.9894 23.5972 38.5204C23.8891 38.162 24.1907 37.7917 24.5169 37.4515C24.6156 37.4827 24.709 37.5116 24.8013 37.5438C25.1243 37.6608 25.4474 37.7789 25.7715 37.8969C26.2158 38.059 26.6622 38.2221 27.1076 38.3809L27.1505 38.3981C27.3319 38.4679 27.6345 38.5859 27.9597 38.2607L28.0359 38.1845L28.0198 38.0772C28.0134 38.0278 28.008 37.9731 28.0026 37.9152C27.9908 37.7832 27.978 37.6329 27.9361 37.4848C27.2697 34.9757 26.5549 32.3013 25.6191 28.8166L25.456 28.2006C25.3143 27.664 25.1705 27.1231 25.0245 26.578C25.1265 26.4599 25.2274 26.3408 25.3282 26.2217C25.603 25.8965 25.8627 25.5896 26.1568 25.3062C26.2898 25.1732 26.5291 25.0583 26.8146 24.9918C27.2439 24.8866 27.6871 24.8083 28.1164 24.731C28.301 24.6977 28.4856 24.6655 28.6702 24.6301C29.7595 24.4241 30.3916 23.7941 30.6051 22.7048C30.7189 22.1274 30.8402 21.5071 30.9539 20.8815C31.0194 20.5091 31.1739 20.2333 31.4411 20.0133C31.7942 19.7181 32.1484 19.4112 32.4897 19.1139C32.6109 19.0098 32.7311 18.9046 32.8513 18.8005C33.7292 18.0439 33.9556 17.2208 33.5875 16.1337L33.4877 15.8385ZM26.791 37.1382C25.9625 36.8441 25.2005 36.5737 24.3838 36.2861L24.2583 36.241L24.1638 36.3333C23.7957 36.6885 23.4802 37.0716 23.1465 37.4773C22.92 37.751 22.6882 38.0332 22.436 38.309C21.9606 36.5307 21.4873 34.7707 21.0162 33.0171C20.4785 31.0113 19.9419 29.0141 19.4064 27.0072C19.6929 26.8731 19.9816 26.8613 20.3046 26.9718L20.5804 27.0641C20.9689 27.194 21.3714 27.3292 21.7577 27.4816C22.4263 27.7488 23.2924 27.9742 24.1971 27.4505C24.9644 30.3223 25.8616 33.6761 26.791 37.1382ZM19.0458 31.9053L18.9664 31.8892L19.0351 31.9439C18.6101 33.5226 18.1862 35.1055 17.7547 36.7175L17.3298 38.3026C17.0378 37.9635 16.7588 37.6372 16.4851 37.3163C16.204 36.9879 15.9282 36.6649 15.6491 36.3397L15.5536 36.2292L15.4152 36.2775C14.577 36.5726 13.8118 36.8441 12.9833 37.1382C13.7829 34.1375 14.6114 31.0446 15.574 27.4644C15.999 27.6941 16.483 27.8787 17.026 27.7606C17.4178 27.6769 17.7977 27.5589 18.2001 27.4333C18.2677 27.4129 18.3364 27.3914 18.4051 27.37C18.5757 28.0053 18.7453 28.631 18.9127 29.2534C19.0544 29.7782 19.196 30.3009 19.3366 30.8257C19.24 31.1852 19.1424 31.5447 19.0458 31.9053ZM32.1902 18.0182C32.1151 18.0847 32.0411 18.1513 31.9659 18.2167C31.6397 18.5086 31.3016 18.8091 30.9507 19.0774C30.3615 19.5335 30.0192 20.127 29.9054 20.8922C29.8593 21.197 29.8024 21.5061 29.7466 21.8044C29.7058 22.0233 29.665 22.2433 29.6285 22.4612C29.5137 23.1459 29.1531 23.514 28.4952 23.6213C28.2065 23.6664 27.9157 23.7222 27.6356 23.778C27.3598 23.8317 27.0754 23.8875 26.7921 23.9304C26.1052 24.0452 25.5708 24.35 25.1576 24.8619C24.943 25.1302 24.7133 25.3932 24.4912 25.6486C24.3227 25.8418 24.1488 26.0414 23.9825 26.2421C23.58 26.7186 23.1121 26.842 22.5111 26.6295C22.0121 26.4481 21.5388 26.2807 21.0741 26.1229C20.8412 26.0435 20.5955 26.0049 20.3497 26.0081L19.1542 26.0263C19.0769 26.0274 19.0007 26.0414 18.9267 26.0661C18.6798 26.1508 18.433 26.2378 18.1872 26.3247C17.8889 26.4288 17.5905 26.534 17.2911 26.6359C16.6858 26.843 16.2169 26.7175 15.8155 26.2421C15.6652 26.0639 15.5128 25.889 15.3615 25.714C15.1125 25.4264 14.855 25.1292 14.6081 24.8276C14.2132 24.3522 13.7034 24.0635 13.0466 23.9465C12.6839 23.8853 12.3137 23.8145 11.9563 23.7458C11.7116 23.6986 11.4669 23.6514 11.2222 23.6074C10.647 23.5033 10.325 23.192 10.208 22.6286C10.0739 21.9665 9.94619 21.2979 9.82921 20.6432C9.73692 20.0841 9.46969 19.6258 9.01359 19.2416C8.77319 19.0366 8.53387 18.8295 8.29562 18.6224C8.05523 18.4142 7.81591 18.206 7.57551 18.001C7.08935 17.5793 6.96272 17.1146 7.17736 16.5372C7.27072 16.285 7.35873 16.0242 7.44458 15.7731C7.55083 15.4618 7.66029 15.1388 7.77942 14.8287C8.00586 14.2094 8.00586 13.5913 7.77942 12.9967C7.63454 12.6018 7.49395 12.1961 7.35658 11.8033L7.25033 11.4964C6.92516 10.5724 7.00135 10.2966 7.75581 9.65051C7.96937 9.46807 8.18401 9.28456 8.39758 9.09997C8.61114 8.91645 8.82363 8.73293 9.03827 8.55049C9.47721 8.17488 9.73585 7.72735 9.82921 7.18325C9.8979 6.78724 9.97517 6.38479 10.0492 5.99522C10.0868 5.79883 10.1243 5.60243 10.1608 5.40604C10.3121 4.59256 10.5751 4.32748 11.3843 4.16972C11.9756 4.05167 12.5787 3.93899 13.1615 3.82952C13.7174 3.72435 14.1789 3.46034 14.5352 3.04502C14.7197 2.82609 14.9076 2.6093 15.0943 2.39359C15.3282 2.12422 15.5708 1.84519 15.8026 1.56509C16.0827 1.22381 16.3939 1.05532 16.7588 1.05532C16.9273 1.05532 17.1076 1.09181 17.3018 1.16264C17.5927 1.27103 17.8921 1.37406 18.1808 1.47279C18.4673 1.57153 18.7635 1.67348 19.0511 1.77973C19.6167 1.98578 20.1898 1.98578 20.7543 1.7808C20.9765 1.70138 21.2008 1.62411 21.4261 1.54577C21.7803 1.42235 22.1473 1.29464 22.5047 1.16264C23.1121 0.939417 23.5897 1.06713 24.0039 1.56509C24.2754 1.89456 24.5577 2.22188 24.8303 2.5374C24.9677 2.69623 25.104 2.85506 25.2402 3.0139C25.6244 3.46786 26.0988 3.73508 26.6901 3.83059C27.1419 3.90464 27.5991 3.99372 28.0423 4.07958C28.2119 4.11284 28.3815 4.14611 28.55 4.17724C29.137 4.29099 29.4772 4.62154 29.5899 5.18604C29.6328 5.40819 29.6757 5.63141 29.7197 5.85356C29.8035 6.28713 29.8904 6.73572 29.9687 7.17466C30.0632 7.71877 30.3218 8.16629 30.7597 8.54298C30.9947 8.74474 31.2308 8.94757 31.4669 9.15041C31.7019 9.35109 31.9359 9.55178 32.1666 9.75139C32.7504 10.2644 32.8427 10.6024 32.5959 11.3236C32.5422 11.4782 32.4907 11.6338 32.4392 11.7894C32.3158 12.1575 32.1892 12.5395 32.0443 12.9066C31.791 13.572 31.791 14.2116 32.0443 14.863C32.2493 15.3985 32.4328 15.9501 32.6109 16.4835C32.8438 17.1747 32.7451 17.5331 32.1902 18.0182Z" fill="#039E2A"/>
<path id="Vector_2" d="M26.8565 6.90425C25.0224 5.07446 22.524 4.02917 19.9902 4.02917H19.9076C17.334 3.99268 14.87 4.98753 12.9865 6.8259C11.0902 8.67716 10.031 11.1552 10.0041 13.8038C9.97624 16.4181 11.0183 18.9905 12.8642 20.8611C14.7079 22.7306 17.1924 23.7641 19.8593 23.7716H19.8893C22.5798 23.7716 25.0803 22.7295 26.9337 20.8353C28.7378 18.9905 29.7423 16.5587 29.7627 13.9895C29.782 11.3097 28.7496 8.79414 26.8565 6.90425ZM26.116 20.1324C24.4515 21.7991 22.2353 22.7177 19.8754 22.7177C15.0374 22.7177 11.0816 18.7512 11.058 13.8757C11.0505 11.578 11.9949 9.30605 13.6509 7.6426C15.2939 5.99096 17.5025 5.07875 19.8679 5.07553H19.8818C22.2707 5.07553 24.4965 5.99633 26.1482 7.66836C27.7955 9.33503 28.7228 11.6005 28.6927 13.8843V13.8929C28.6949 16.2507 27.7794 18.4657 26.116 20.1324Z" fill="#039E2A"/>
<path id="Vector_3" d="M25.984 12.5116C25.984 12.4751 25.9604 12.4365 25.9421 12.4053C25.8509 12.2551 25.5053 12.1574 25.3422 12.1188C25.1587 12.0759 24.9752 12.0566 24.7981 12.0383C24.7015 12.0287 24.6049 12.019 24.5083 12.004C23.6519 11.8827 22.7869 11.7614 21.923 11.6402C21.9005 11.5962 21.8779 11.5532 21.8565 11.5114C21.8211 11.4427 21.7867 11.3751 21.7534 11.3096C21.3338 10.4296 20.8981 9.53563 20.4774 8.67064L20.4345 8.58371C20.3508 8.40985 20.2102 8.11902 19.7573 8.11902H19.6468L19.5824 8.20917C19.5631 8.236 19.5416 8.26497 19.518 8.2961C19.4418 8.39698 19.3474 8.52147 19.2722 8.66527C18.9771 9.26089 18.6841 9.86617 18.4008 10.4521C18.2559 10.7505 18.1121 11.0488 17.9651 11.3504C17.9307 11.4234 17.8878 11.4974 17.8427 11.5768C17.8288 11.6005 17.8148 11.6241 17.802 11.6477C16.9123 11.7711 16.0376 11.8891 15.1694 12.0072L14.5491 12.0909L14.5212 12.0941C14.2851 12.1242 13.888 12.1746 13.8032 12.7294L13.7861 12.84L13.8666 12.9173C14.3452 13.3798 14.8314 13.852 15.3218 14.3274C15.735 14.7277 16.1503 15.1313 16.5678 15.5337L16.4637 16.1122C16.3038 16.9922 16.1535 17.8239 16.0097 18.6782C15.985 18.8456 15.9775 19.0151 15.97 19.2126C15.9679 19.263 15.9657 19.3178 15.9636 19.3736C15.9679 19.4369 16.0312 19.5678 16.116 19.6075C16.1653 19.6322 16.2211 19.6612 16.2759 19.6612C16.3338 19.6515 16.3886 19.643 16.4379 19.6376C16.5796 19.6172 16.7019 19.6 16.82 19.5474C17.025 19.4605 17.2214 19.3521 17.4102 19.248C17.4875 19.2051 17.5648 19.1622 17.6431 19.1214C18.0327 18.9143 18.4212 18.7061 18.8108 18.4979C19.1649 18.3079 19.518 18.1179 19.8721 17.9301C19.9956 17.9902 20.105 18.045 20.2102 18.1008C20.6491 18.3347 21.087 18.5698 21.5249 18.8059C21.9606 19.0409 22.3974 19.2759 22.8395 19.5109C23.0338 19.6161 23.36 19.7932 23.7399 19.4358L23.8161 19.3639L23.8065 19.2609C23.7453 18.5665 23.609 17.8593 23.477 17.1746C23.3729 16.6348 23.2656 16.0778 23.1937 15.523C23.6466 15.0819 24.0973 14.6462 24.547 14.2126C24.8163 13.9529 25.0857 13.6921 25.354 13.4324C25.4935 13.2972 25.633 13.1619 25.7736 13.0257C25.8337 12.9666 25.8713 12.9258 25.9067 12.8572C25.9528 12.767 25.9861 12.6651 25.984 12.5781C25.984 12.5534 25.984 12.5373 25.984 12.5127V12.5116ZM22.8942 14.3639C22.6485 14.6011 22.4006 14.8393 22.1473 15.083L22.0657 15.1613L22.084 15.2729C22.1924 15.9276 22.3061 16.5919 22.4253 17.2798C22.4768 17.576 22.5283 17.8754 22.5809 18.1813C22.5691 18.1759 22.5573 18.1705 22.5465 18.1652C22.348 18.0589 22.1495 17.9537 21.9498 17.8496C21.4454 17.5846 20.9249 17.3109 20.4291 17.0233C20.2424 16.9117 20.0642 16.8559 19.8839 16.8559C19.7036 16.8559 19.5212 16.9106 19.3259 17.0211C18.8193 17.3109 18.2935 17.5867 17.7848 17.8539C17.6281 17.9366 17.4714 18.0181 17.3158 18.1008C17.275 18.1222 17.2342 18.1426 17.1892 18.1652C17.3652 17.1639 17.5315 16.2173 17.6903 15.2815L17.7097 15.171L17.6292 15.0915C17.2632 14.7363 16.9015 14.3886 16.5367 14.0355C16.204 13.7146 15.8681 13.3905 15.5225 13.0557C16.497 12.9151 17.4328 12.781 18.4266 12.6425L18.5392 12.6275L18.6519 12.3989C19.0544 11.579 19.4686 10.7365 19.8839 9.88657C20.3175 10.7687 20.7511 11.6498 21.1771 12.5245L21.2276 12.6264L24.2551 13.0557C23.7893 13.5011 23.3439 13.9304 22.8942 14.3639Z" fill="#039E2A"/>
</g>
</g>
<defs>
<clipPath id="clip0_208_131269">
<rect width="40" height="40" fill="white"/>
</clipPath>
</defs>
</svg>
