<svg width="51" height="17" viewBox="0 0 51 17" fill="none" xmlns="http://www.w3.org/2000/svg">
<g id="Google_2015_logo 2" clip-path="url(#clip0_208_131193)">
<path id="Vector" d="M21.7031 8.71799C21.7031 11.0777 19.83 12.8165 17.5312 12.8165C15.2325 12.8165 13.3594 11.0777 13.3594 8.71799C13.3594 6.34168 15.2325 4.61951 17.5312 4.61951C19.83 4.61951 21.7031 6.34168 21.7031 8.71799ZM19.8769 8.71799C19.8769 7.24342 18.7912 6.23451 17.5312 6.23451C16.2713 6.23451 15.1856 7.24342 15.1856 8.71799C15.1856 10.1778 16.2713 11.2015 17.5312 11.2015C18.7912 11.2015 19.8769 10.1759 19.8769 8.71799Z" fill="#EA4335"/>
<path id="Vector_2" d="M30.7031 8.71799C30.7031 11.0777 28.83 12.8165 26.5312 12.8165C24.2325 12.8165 22.3594 11.0777 22.3594 8.71799C22.3594 6.34353 24.2325 4.61951 26.5312 4.61951C28.83 4.61951 30.7031 6.34168 30.7031 8.71799ZM28.8769 8.71799C28.8769 7.24342 27.7912 6.23451 26.5312 6.23451C25.2713 6.23451 24.1856 7.24342 24.1856 8.71799C24.1856 10.1778 25.2713 11.2015 26.5312 11.2015C27.7912 11.2015 28.8769 10.1759 28.8769 8.71799Z" fill="#FBBC05"/>
<path id="Vector_3" d="M39.3281 4.86712V12.2252C39.3281 15.2519 37.5169 16.4881 35.3756 16.4881C33.36 16.4881 32.1469 15.1595 31.6894 14.073L33.2794 13.4207C33.5625 14.0878 34.2562 14.8749 35.3737 14.8749C36.7444 14.8749 37.5937 14.0416 37.5937 12.4728V11.8833H37.53C37.1212 12.3804 36.3337 12.8146 35.34 12.8146C33.2606 12.8146 31.3556 11.0296 31.3556 8.73277C31.3556 6.41929 33.2606 4.61951 35.34 4.61951C36.3319 4.61951 37.1194 5.05375 37.53 5.53603H37.5937V4.86896H39.3281V4.86712ZM37.7231 8.73277C37.7231 7.28962 36.7462 6.23451 35.5031 6.23451C34.2431 6.23451 33.1875 7.28962 33.1875 8.73277C33.1875 10.1611 34.2431 11.2015 35.5031 11.2015C36.7462 11.2015 37.7231 10.1611 37.7231 8.73277Z" fill="#4285F4"/>
<path id="Vector_4" d="M42.1875 0.554321V12.5652H40.4062V0.554321H42.1875Z" fill="#34A853"/>
<path id="Vector_5" d="M49.1287 10.0669L50.5462 10.9982C50.0887 11.6653 48.9863 12.8146 47.0813 12.8146C44.7188 12.8146 42.9544 11.0148 42.9544 8.71615C42.9544 6.27887 44.7338 4.61768 46.8769 4.61768C49.035 4.61768 50.0906 6.31028 50.4356 7.22496L50.625 7.69061L45.0656 9.95974C45.4913 10.782 46.1531 11.2015 47.0813 11.2015C48.0113 11.2015 48.6562 10.7506 49.1287 10.0669ZM44.7656 8.59235L48.4819 7.07159C48.2775 6.55974 47.6625 6.20311 46.9388 6.20311C46.0106 6.20311 44.7188 7.01061 44.7656 8.59235Z" fill="#EA4335"/>
<path id="Vector_6" d="M6.61688 7.65179V5.91299H12.5625C12.6206 6.21603 12.6506 6.57451 12.6506 6.96255C12.6506 8.26712 12.2888 9.88027 11.1225 11.0296C9.98813 12.1937 8.53875 12.8146 6.61875 12.8146C3.06 12.8146 0.0675049 9.95788 0.0675049 6.4507C0.0675049 2.94353 3.06 0.086792 6.61875 0.086792C8.5875 0.086792 9.99 0.848096 11.0438 1.84038L9.79875 3.06734C9.04313 2.36886 8.01938 1.8256 6.61688 1.8256C4.01813 1.8256 1.98563 3.88962 1.98563 6.4507C1.98563 9.01179 4.01813 11.0758 6.61688 11.0758C8.3025 11.0758 9.2625 10.4087 9.8775 9.80266C10.3763 9.31114 10.7044 8.60897 10.8338 7.64994L6.61688 7.65179Z" fill="#4285F4"/>
</g>
<defs>
<clipPath id="clip0_208_131193">
<rect width="51" height="17" fill="white"/>
</clipPath>
</defs>
</svg>
