<svg width="512" height="512" viewBox="0 0 512 512" fill="none" xmlns="http://www.w3.org/2000/svg">
<path d="M395.941 66.5687C350.763 59.5197 305.119 55.9865 259.41 56C182.762 56 105.625 65.6972 28 85.0914V85.4354C40.2109 197.328 63.1674 272.052 100.193 320.629C108.54 331.649 117.993 341.758 128.401 350.794C119.188 340.387 111.007 329.085 103.979 317.051C88.064 289.942 76.6265 257.961 69.0286 219.346C62.7875 187.324 59.2056 151.421 58.3373 110.123L60.7252 109.669C186.294 73.0503 248.8 63.4036 395.941 66.5687Z" fill="url(#paint0_linear_913_6398)"/>
<path d="M411.218 317.341C380.609 370.79 331.358 404.684 256.546 423.661L254.47 423.097C174.733 405.4 125.144 377.478 88.945 329.974C68.8378 303.704 52.9636 271.227 40.5356 230.315C65.6358 351.483 130.747 424.968 256.411 456L258.568 455.477C335.415 420.413 383.241 378.317 408.938 323.135C410.119 320.561 411.258 318.002 412.344 315.415C411.964 316.089 411.597 316.694 411.218 317.341Z" fill="url(#paint1_linear_913_6398)"/>
<path d="M484.781 85.0907L481.904 84.3614C356.661 79.3523 285.567 79.1046 218.556 88.3521C232.232 87.7191 245.85 87.398 259.408 87.3889C325.06 87.4165 390.499 94.9548 454.484 109.861C454.068 131.998 452.951 152.668 451.133 171.869C446.805 264.909 439.302 353.394 340.611 425.476C450.278 367.885 485.337 256.749 484.781 85.0907Z" fill="url(#paint2_linear_913_6398)"/>
<path d="M322.785 242.109C322.785 242.494 322.785 242.865 322.785 243.223C322.526 252.015 319.218 260.433 313.443 266.995C307.668 273.557 299.797 277.843 291.213 279.099C289.47 279.353 287.711 279.482 285.949 279.484C280.01 279.489 274.157 278.035 268.893 275.245C263.628 272.455 259.109 268.414 255.72 263.466C254.794 262.151 253.96 260.771 253.224 259.338C250.526 254.023 249.13 248.127 249.154 242.15C249.152 244.954 249.695 247.731 250.752 250.322C251.808 252.913 253.358 255.268 255.312 257.251C257.267 259.234 259.587 260.808 262.141 261.881C264.695 262.955 267.432 263.507 270.197 263.507C279.968 263.507 289.339 259.571 296.249 252.565C303.159 245.559 307.043 236.056 307.047 226.145C307.045 224.359 306.918 222.575 306.667 220.806C305.426 212.103 301.199 204.122 294.729 198.268C288.26 192.413 279.962 189.06 271.296 188.797C278.155 188.917 284.924 190.409 291.213 193.187C303.346 198.578 313.033 208.404 318.349 220.71C321.107 227.099 322.592 233.979 322.717 240.953C322.785 241.365 322.785 241.778 322.785 242.109Z" fill="url(#paint3_linear_913_6398)"/>
<path d="M322.772 243.224C322.63 250.201 321.126 257.081 318.349 263.467C313.506 274.7 304.999 283.901 294.257 289.524C283.515 295.146 271.192 296.848 259.359 294.342C247.526 291.837 236.904 285.277 229.276 275.766C221.649 266.254 217.481 254.37 217.474 242.109V172.725C217.474 168.476 219.138 164.402 222.099 161.398C225.061 158.394 229.078 156.707 233.266 156.707C237.455 156.707 241.472 158.394 244.434 161.398C247.395 164.402 249.059 168.476 249.059 172.725V242.109C249.036 248.087 250.432 253.982 253.129 259.297C253.866 260.73 254.7 262.11 255.626 263.425C259.014 268.373 263.534 272.415 268.798 275.204C274.063 277.994 279.915 279.448 285.855 279.443C287.616 279.441 289.375 279.312 291.119 279.058C299.7 277.799 307.568 273.512 313.34 266.95C319.112 260.388 322.419 251.972 322.677 243.182L322.772 243.224Z" fill="url(#paint4_linear_913_6398)"/>
<path d="M307.006 226.102C307.002 236.012 303.118 245.515 296.208 252.521C289.297 259.528 279.927 263.464 270.156 263.464C273.007 263.611 275.859 263.168 278.536 262.162C281.214 261.157 283.662 259.609 285.731 257.614C287.801 255.619 289.449 253.218 290.575 250.557C291.701 247.895 292.281 245.03 292.281 242.134C292.281 239.238 291.701 236.372 290.575 233.711C289.449 231.049 287.801 228.648 285.731 226.653C283.662 224.658 281.214 223.111 278.536 222.105C275.859 221.1 273.007 220.657 270.156 220.804C266.112 220.804 262.224 219.222 259.302 216.386C257.023 214.18 255.446 211.333 254.775 208.21C254.104 205.088 254.37 201.834 255.537 198.866C256.704 195.897 258.719 193.351 261.325 191.554C263.93 189.757 267.005 188.791 270.156 188.781H271.255C279.923 189.036 288.225 192.386 294.696 198.242C301.167 204.098 305.392 212.083 306.626 220.79C306.875 222.549 307.002 224.324 307.006 226.102Z" fill="url(#paint5_linear_913_6398)"/>
<path d="M208.451 242.108V279.484C208.449 282.812 207.425 286.056 205.521 288.767C203.618 291.477 200.929 293.519 197.829 294.609C194.729 295.698 191.371 295.781 188.222 294.846C185.073 293.912 182.289 292.005 180.258 289.392C179.745 288.727 179.291 288.018 178.901 287.273C177.584 284.894 176.893 282.212 176.893 279.484V242.108C176.917 236.135 175.521 230.244 172.823 224.934C172.091 223.501 171.261 222.121 170.34 220.806C166.951 215.858 162.432 211.816 157.167 209.027C151.903 206.237 146.05 204.783 140.111 204.788C138.35 204.786 136.591 204.91 134.847 205.159C126.318 206.403 118.489 210.636 112.716 217.124C106.944 223.612 103.594 231.945 103.248 240.677C103.41 233.815 104.889 227.052 107.603 220.764C112.445 209.535 120.949 200.338 131.687 194.717C142.425 189.096 154.743 187.395 166.572 189.899C178.402 192.402 189.021 198.958 196.647 208.465C204.273 217.973 208.441 229.852 208.451 242.108Z" fill="url(#paint6_linear_913_6398)"/>
<path d="M171.626 279.482C171.615 283.719 169.948 287.779 166.99 290.772C164.032 293.764 160.025 295.445 155.847 295.445H154.748C148.182 295.245 141.789 293.27 136.228 289.723C130.668 286.176 126.143 281.186 123.122 275.271C121.22 271.575 119.953 267.578 119.377 263.45C119.127 261.681 119 259.897 118.997 258.111C119.001 248.2 122.885 238.697 129.795 231.691C136.705 224.685 146.076 220.749 155.847 220.749C152.995 220.602 150.144 221.044 147.466 222.05C144.789 223.056 142.341 224.603 140.271 226.598C138.202 228.593 136.554 230.994 135.428 233.656C134.302 236.317 133.721 239.183 133.721 242.079C133.721 244.975 134.302 247.84 135.428 250.502C136.554 253.163 138.202 255.564 140.271 257.559C142.341 259.554 144.789 261.102 147.466 262.107C150.144 263.113 152.995 263.556 155.847 263.409C157.921 263.407 159.974 263.82 161.891 264.625C163.807 265.429 165.547 266.609 167.013 268.097C168.479 269.585 169.641 271.352 170.432 273.296C171.224 275.24 171.63 277.323 171.626 279.427V279.482Z" fill="url(#paint7_linear_913_6398)"/>
<path d="M176.891 242.109C176.892 239.305 176.349 236.529 175.293 233.939C174.236 231.348 172.686 228.995 170.731 227.012C168.777 225.03 166.456 223.458 163.902 222.386C161.348 221.314 158.611 220.763 155.847 220.765C146.076 220.765 136.706 224.701 129.795 231.707C122.885 238.714 119.001 248.217 118.998 258.127C119 259.914 119.127 261.698 119.377 263.466C119.954 267.594 121.22 271.592 123.122 275.287C126.145 281.2 130.671 286.187 136.231 289.731C141.791 293.275 148.184 295.249 154.748 295.447C147.873 295.32 141.09 293.814 134.79 291.016C122.661 285.621 112.975 275.796 107.655 263.494C104.941 257.202 103.462 250.433 103.3 243.567C103.293 243.462 103.293 243.356 103.3 243.251C103.3 242.893 103.3 242.508 103.3 242.136C103.3 241.765 103.3 241.393 103.3 241.035C103.293 240.925 103.293 240.815 103.3 240.705C103.635 231.974 106.973 223.638 112.735 217.142C118.497 210.647 126.319 206.403 134.845 205.146C136.588 204.897 138.348 204.772 140.109 204.774C146.048 204.769 151.901 206.224 157.165 209.014C162.429 211.803 166.949 215.845 170.338 220.793C171.259 222.108 172.089 223.488 172.82 224.921C175.521 230.235 176.917 236.131 176.891 242.109Z" fill="url(#paint8_linear_913_6398)"/>
<path d="M342.471 189.057C342.987 189.149 343.489 189.294 343.991 189.425C343.494 189.267 342.986 189.144 342.471 189.057Z" fill="url(#paint9_linear_913_6398)"/>
<path d="M428.777 204.744C428.777 208.061 426.063 213.73 426.063 213.744C425.833 214.336 425.534 214.914 425.249 215.478C425.059 215.822 424.897 216.166 424.734 216.496L416.159 234.056C411.587 243.414 405.956 254.89 401.167 264.633C399.91 264.878 398.633 264.998 397.354 264.991C396.621 264.991 395.902 264.991 395.197 264.881C390.026 264.396 385.217 261.978 381.707 258.097C378.196 254.215 376.234 249.149 376.202 243.881V243.606L384.478 226.79L389.905 215.685L393.976 207.428C396.54 202.24 398.697 195.538 403.405 191.974C405.941 190.025 409.005 188.911 412.184 188.781C412.414 188.781 414.354 188.781 414.639 188.781L415.467 188.905C419.185 189.497 422.572 191.42 425.013 194.325C427.455 197.231 428.79 200.927 428.777 204.744Z" fill="url(#paint10_linear_913_6398)"/>
<path d="M401.113 264.632L397.3 272.352C394.492 278.022 392.307 282.412 391.276 284.366C389.702 287.38 388.332 290.187 385.605 292.279C383.948 293.544 382.061 294.464 380.053 294.989C378.044 295.513 375.954 295.63 373.901 295.333C371.848 295.037 369.872 294.332 368.088 293.26C366.304 292.188 364.746 290.77 363.503 289.086C362.933 288.329 350.057 262.389 339.529 241.073L339.366 240.729L339 239.972C338.997 239.94 338.997 239.908 339 239.876C338.13 237.901 337.662 235.77 337.623 233.608C337.584 231.446 337.975 229.298 338.773 227.293C339.571 225.287 340.759 223.466 342.267 221.937C343.774 220.408 345.57 219.203 347.547 218.394C350.775 216.398 353.188 213.291 354.346 209.641C355.504 205.991 355.33 202.04 353.856 198.509C355.878 201.963 357.493 205.872 359.283 209.339C361.997 214.771 364.711 220.202 367.424 225.633C367.546 225.88 367.668 226.101 367.777 226.335C370.644 232.059 373.448 237.816 376.189 243.605V243.88C376.221 249.147 378.183 254.214 381.693 258.095C385.204 261.977 390.013 264.395 395.184 264.88C395.889 264.949 396.608 264.99 397.341 264.99C398.607 264.994 399.87 264.874 401.113 264.632Z" fill="url(#paint11_linear_913_6398)"/>
<path d="M355.088 204.745C355.089 207.487 354.394 210.183 353.071 212.574C351.747 214.965 349.839 216.97 347.53 218.396C345.556 219.208 343.762 220.415 342.257 221.945C340.751 223.474 339.564 225.295 338.767 227.299C337.969 229.303 337.577 231.45 337.615 233.611C337.652 235.772 338.117 237.903 338.983 239.878C331.955 225.635 326.107 213.731 325.958 213.332C325.935 213.288 325.908 213.246 325.876 213.208C325.714 212.933 325.551 212.658 325.402 212.383C325.252 212.107 325.089 211.777 324.954 211.461C324.925 211.404 324.903 211.344 324.886 211.282C324.788 211.097 324.706 210.904 324.642 210.704C324.642 210.552 324.52 210.401 324.465 210.25C324.37 210.007 324.288 209.759 324.221 209.507C324.135 209.259 324.062 209.006 324.004 208.75C324.004 208.571 323.909 208.378 323.868 208.199C323.828 208.02 323.868 207.828 323.76 207.635C323.651 207.442 323.692 207.263 323.665 207.071L323.583 206.383C323.583 206.149 323.583 205.901 323.583 205.653C323.583 205.406 323.583 205.062 323.583 204.745C323.583 200.497 325.247 196.423 328.209 193.419C331.171 190.415 335.188 188.727 339.376 188.727H340.231C340.489 188.727 340.747 188.727 340.977 188.727C341.246 188.738 341.514 188.77 341.778 188.823L342.551 188.961C343.067 189.057 343.569 189.209 344.071 189.346L344.79 189.594C344.966 189.594 345.142 189.732 345.305 189.8C349.144 191.396 352.213 194.454 353.853 198.319C354.696 200.352 355.117 202.54 355.088 204.745Z" fill="url(#paint12_linear_913_6398)"/>
<defs>
<linearGradient id="paint0_linear_913_6398" x1="217.92" y1="63.5687" x2="83.0908" y2="333.73" gradientUnits="userSpaceOnUse">
<stop stop-color="#039E2A"/>
<stop offset="1" stop-color="#006633"/>
</linearGradient>
<linearGradient id="paint1_linear_913_6398" x1="107.94" y1="357.166" x2="386.471" y2="264.144" gradientUnits="userSpaceOnUse">
<stop stop-color="#039E2A"/>
<stop offset="0.24" stop-color="#03982B"/>
<stop offset="0.57" stop-color="#02872E"/>
<stop offset="0.94" stop-color="#006B32"/>
<stop offset="1" stop-color="#006633"/>
</linearGradient>
<linearGradient id="paint2_linear_913_6398" x1="459.246" y1="331.762" x2="313.374" y2="98.8285" gradientUnits="userSpaceOnUse">
<stop stop-color="#039E2A"/>
<stop offset="0.25" stop-color="#03992B"/>
<stop offset="0.54" stop-color="#028C2D"/>
<stop offset="0.84" stop-color="#017631"/>
<stop offset="1" stop-color="#006633"/>
</linearGradient>
<linearGradient id="paint3_linear_913_6398" x1="323.409" y1="201.375" x2="256.127" y2="257.668" gradientUnits="userSpaceOnUse">
<stop stop-color="#039E2A"/>
<stop offset="0.3" stop-color="#039B2B"/>
<stop offset="0.55" stop-color="#02912C"/>
<stop offset="0.77" stop-color="#01802F"/>
<stop offset="0.99" stop-color="#006833"/>
<stop offset="1" stop-color="#006633"/>
</linearGradient>
<linearGradient id="paint4_linear_913_6398" x1="230.906" y1="165.693" x2="290.672" y2="288.622" gradientUnits="userSpaceOnUse">
<stop stop-color="#039E2A"/>
<stop offset="0.3" stop-color="#039B2B"/>
<stop offset="0.55" stop-color="#02912C"/>
<stop offset="0.77" stop-color="#01802F"/>
<stop offset="0.99" stop-color="#006833"/>
<stop offset="1" stop-color="#006633"/>
</linearGradient>
<linearGradient id="paint5_linear_913_6398" x1="275.569" y1="190.378" x2="287.042" y2="242.465" gradientUnits="userSpaceOnUse">
<stop stop-color="#039E2A"/>
<stop offset="0.3" stop-color="#039B2B"/>
<stop offset="0.55" stop-color="#02912C"/>
<stop offset="0.77" stop-color="#01802F"/>
<stop offset="0.99" stop-color="#006833"/>
<stop offset="1" stop-color="#006633"/>
</linearGradient>
<linearGradient id="paint6_linear_913_6398" x1="201.871" y1="281.149" x2="130.148" y2="205.031" gradientUnits="userSpaceOnUse">
<stop stop-color="#039E2A"/>
<stop offset="0.3" stop-color="#039B2B"/>
<stop offset="0.55" stop-color="#02912C"/>
<stop offset="0.77" stop-color="#01802F"/>
<stop offset="0.99" stop-color="#006833"/>
<stop offset="1" stop-color="#006633"/>
</linearGradient>
<linearGradient id="paint7_linear_913_6398" x1="159.836" y1="293.917" x2="137.708" y2="245.492" gradientUnits="userSpaceOnUse">
<stop stop-color="#039E2A"/>
<stop offset="0.3" stop-color="#039B2B"/>
<stop offset="0.55" stop-color="#02912C"/>
<stop offset="0.77" stop-color="#01802F"/>
<stop offset="0.99" stop-color="#006833"/>
<stop offset="1" stop-color="#006633"/>
</linearGradient>
<linearGradient id="paint8_linear_913_6398" x1="117.017" y1="274.929" x2="167.349" y2="220.347" gradientUnits="userSpaceOnUse">
<stop stop-color="#039E2A"/>
<stop offset="0.26" stop-color="#039A2B"/>
<stop offset="0.54" stop-color="#028D2D"/>
<stop offset="0.82" stop-color="#017730"/>
<stop offset="1" stop-color="#006633"/>
</linearGradient>
<linearGradient id="paint9_linear_913_6398" x1="342.471" y1="189.241" x2="343.991" y2="189.241" gradientUnits="userSpaceOnUse">
<stop stop-color="white"/>
<stop offset="1"/>
</linearGradient>
<linearGradient id="paint10_linear_913_6398" x1="435.968" y1="212.148" x2="376.366" y2="239.574" gradientUnits="userSpaceOnUse">
<stop stop-color="#039E2A"/>
<stop offset="0.28" stop-color="#02932C"/>
<stop offset="0.76" stop-color="#017630"/>
<stop offset="0.99" stop-color="#006633"/>
</linearGradient>
<linearGradient id="paint11_linear_913_6398" x1="337.114" y1="241.087" x2="405.811" y2="255.685" gradientUnits="userSpaceOnUse">
<stop stop-color="#039E2A"/>
<stop offset="0.25" stop-color="#03992B"/>
<stop offset="0.54" stop-color="#028A2D"/>
<stop offset="0.86" stop-color="#017231"/>
<stop offset="1" stop-color="#006633"/>
</linearGradient>
<linearGradient id="paint12_linear_913_6398" x1="342.863" y1="188.672" x2="332.214" y2="235.272" gradientUnits="userSpaceOnUse">
<stop stop-color="#039E2A"/>
<stop offset="0.35" stop-color="#028E2D"/>
<stop offset="1" stop-color="#006633"/>
</linearGradient>
</defs>
</svg>
