<svg width="24" height="25" viewBox="0 0 24 25" fill="none" xmlns="http://www.w3.org/2000/svg">
<g id="Arrows / upper arrow">
<path id="Vector" d="M10.59 7.73614L14.83 12.0261C14.9237 12.1191 14.9981 12.2297 15.0489 12.3516C15.0997 12.4734 15.1258 12.6041 15.1258 12.7361C15.1258 12.8681 15.0997 12.9989 15.0489 13.1207C14.9981 13.2426 14.9237 13.3532 14.83 13.4461L10.59 17.6861C10.497 17.7799 10.3864 17.8543 10.2646 17.905C10.1427 17.9558 10.012 17.9819 9.88 17.9819C9.74799 17.9819 9.61728 17.9558 9.49542 17.905C9.37356 17.8543 9.26296 17.7799 9.17 17.6861C8.98375 17.4988 8.87921 17.2453 8.87921 16.9811C8.87921 16.7169 8.98375 16.4635 9.17 16.2761L12.71 12.7361L9.17 9.19614C8.98525 9.00988 8.8811 8.75848 8.88 8.49614C8.87924 8.36453 8.90446 8.23407 8.95423 8.11223C9.00399 7.99039 9.07732 7.87957 9.17 7.78613C9.25962 7.68906 9.36758 7.61071 9.48766 7.5556C9.60773 7.50049 9.73754 7.46973 9.86957 7.46508C10.0016 7.46043 10.1333 7.48199 10.2569 7.52851C10.3806 7.57504 10.4938 7.6456 10.59 7.73614Z" fill="white"/>
</g>
</svg>
