<svg width="24" height="24" viewBox="0 0 24 24" fill="none" xmlns="http://www.w3.org/2000/svg">
<g id="Arrows / upper arrow">
<path id="Vector" d="M10.59 7.00005L14.83 11.2901C14.9237 11.383 14.9981 11.4936 15.0489 11.6155C15.0997 11.7373 15.1258 11.868 15.1258 12.0001C15.1258 12.1321 15.0997 12.2628 15.0489 12.3846C14.9981 12.5065 14.9237 12.6171 14.83 12.7101L10.59 16.9501C10.497 17.0438 10.3864 17.1182 10.2646 17.1689C10.1427 17.2197 10.012 17.2458 9.88 17.2458C9.74799 17.2458 9.61729 17.2197 9.49543 17.1689C9.37357 17.1182 9.26297 17.0438 9.17 16.9501C8.98375 16.7627 8.87921 16.5092 8.87921 16.2451C8.87921 15.9809 8.98375 15.7274 9.17 15.5401L12.71 12.0001L9.17 8.46005C8.98526 8.27379 8.88111 8.02239 8.88 7.76005C8.87924 7.62844 8.90447 7.49798 8.95423 7.37614C9.004 7.25431 9.07732 7.14349 9.17 7.05005C9.25962 6.95298 9.36759 6.87462 9.48766 6.81952C9.60774 6.76441 9.73754 6.73364 9.86958 6.72899C10.0016 6.72434 10.1333 6.7459 10.2569 6.79243C10.3806 6.83895 10.4938 6.90952 10.59 7.00005Z" fill="#039E2A"/>
</g>
</svg>
