<svg width="20" height="20" viewBox="0 0 20 20" fill="none" xmlns="http://www.w3.org/2000/svg">
<g id="Arrows / upper right arrow">
<path id="Vector" d="M14.9333 5.51667C14.8488 5.31304 14.687 5.15123 14.4833 5.06667C14.3831 5.02397 14.2756 5.00132 14.1667 5H5.83333C5.61232 5 5.40036 5.0878 5.24408 5.24408C5.0878 5.40036 5 5.61232 5 5.83333C5 6.05435 5.0878 6.26631 5.24408 6.42259C5.40036 6.57887 5.61232 6.66667 5.83333 6.66667H12.1583L5.24167 13.575C5.16356 13.6525 5.10156 13.7446 5.05926 13.8462C5.01695 13.9477 4.99517 14.0567 4.99517 14.1667C4.99517 14.2767 5.01695 14.3856 5.05926 14.4871C5.10156 14.5887 5.16356 14.6809 5.24167 14.7583C5.31913 14.8364 5.4113 14.8984 5.51285 14.9407C5.6144 14.9831 5.72332 15.0048 5.83333 15.0048C5.94334 15.0048 6.05226 14.9831 6.15381 14.9407C6.25536 14.8984 6.34753 14.8364 6.425 14.7583L13.3333 7.84167V14.1667C13.3333 14.3877 13.4211 14.5996 13.5774 14.7559C13.7337 14.9122 13.9457 15 14.1667 15C14.3877 15 14.5996 14.9122 14.7559 14.7559C14.9122 14.5996 15 14.3877 15 14.1667V5.83333C14.9987 5.72444 14.976 5.61685 14.9333 5.51667Z" fill="white"/>
</g>
</svg>
