<svg width="24" height="24" viewBox="0 0 24 24" fill="none" xmlns="http://www.w3.org/2000/svg">
<g id="Arrows / upper arrow">
<path id="Vector" d="M13.41 7.00005L9.17 11.2901C9.07627 11.383 9.00187 11.4936 8.95111 11.6155C8.90034 11.7373 8.8742 11.868 8.8742 12.0001C8.8742 12.1321 8.90034 12.2628 8.95111 12.3846C9.00187 12.5065 9.07627 12.6171 9.17 12.7101L13.41 16.9501C13.503 17.0438 13.6136 17.1182 13.7354 17.1689C13.8573 17.2197 13.988 17.2458 14.12 17.2458C14.252 17.2458 14.3827 17.2197 14.5046 17.1689C14.6264 17.1182 14.737 17.0438 14.83 16.9501C15.0162 16.7627 15.1208 16.5092 15.1208 16.2451C15.1208 15.9809 15.0162 15.7274 14.83 15.5401L11.29 12.0001L14.83 8.46005C15.0147 8.27379 15.1189 8.02239 15.12 7.76005C15.1208 7.62844 15.0955 7.49798 15.0458 7.37614C14.996 7.25431 14.9227 7.14349 14.83 7.05005C14.7404 6.95298 14.6324 6.87462 14.5123 6.81952C14.3923 6.76441 14.2625 6.73364 14.1304 6.72899C13.9984 6.72434 13.8667 6.7459 13.7431 6.79243C13.6194 6.83895 13.5062 6.90952 13.41 7.00005Z" fill="#039E2A"/>
</g>
</svg>
