<svg width="78" height="15" viewBox="0 0 78 15" fill="none" xmlns="http://www.w3.org/2000/svg">
<g id="Group 921">
<path id="Subtract" fill-rule="evenodd" clip-rule="evenodd" d="M68.4201 0.577637C65.6587 0.577637 63.4201 2.81621 63.4201 5.57763V9.42247C63.4201 12.1839 65.6586 14.4225 68.4201 14.4225H72.2649C75.0263 14.4225 77.2649 12.1839 77.2649 9.42248V5.57764C77.2649 2.81621 75.0263 0.577637 72.2649 0.577637H68.4201ZM70.344 2.88542L71.6626 5.85217L74.959 6.18181L72.6515 8.48929L73.3108 11.6537L70.3441 10.1375L67.3773 11.6537L68.0366 8.48929L65.7291 6.18181L69.0255 5.85217L70.344 2.88542Z" fill="#FF1A1A"/>
<path id="Vector 5" d="M71.6608 5.852L70.3422 2.88525L69.0237 5.852L65.7273 6.18164L68.0347 8.48912L67.3755 11.6535L70.3423 10.1373L73.309 11.6535L72.6497 8.48912L74.9572 6.18164L71.6608 5.852Z" fill="white"/>
<path id="Subtract_2" fill-rule="evenodd" clip-rule="evenodd" d="M52.5971 0.577637C49.8357 0.577637 47.5971 2.81621 47.5971 5.57763V9.42247C47.5971 12.1839 49.8357 14.4225 52.5971 14.4225H56.442C59.2034 14.4225 61.442 12.1839 61.442 9.42248V5.57764C61.442 2.81621 59.2034 0.577637 56.442 0.577637H52.5971ZM54.5205 2.88542L55.839 5.85217L59.1354 6.18181L56.8279 8.48929L57.4872 11.6537L54.5205 10.1375L51.5537 11.6537L52.213 8.48929L49.9055 6.18181L53.2019 5.85217L54.5205 2.88542Z" fill="#FF1A1A"/>
<path id="Vector 4" d="M55.8391 5.852L54.5205 2.88525L53.202 5.852L49.9056 6.18164L52.213 8.48912L51.5538 11.6535L54.5206 10.1373L57.4873 11.6535L56.828 8.48912L59.1355 6.18164L55.8391 5.852Z" fill="white"/>
<path id="Subtract_3" fill-rule="evenodd" clip-rule="evenodd" d="M36.7738 0.577637C34.0123 0.577637 31.7738 2.81621 31.7738 5.57763V9.42247C31.7738 12.1839 34.0123 14.4225 36.7738 14.4225H40.6186C43.38 14.4225 45.6186 12.1839 45.6186 9.42248V5.57764C45.6186 2.81621 43.38 0.577637 40.6186 0.577637H36.7738ZM38.6974 2.88542L40.0159 5.85217L43.3123 6.18181L41.0049 8.48929L41.6641 11.6537L38.6974 10.1375L35.7306 11.6537L36.3899 8.48929L34.0824 6.18181L37.3788 5.85217L38.6974 2.88542Z" fill="#FF1A1A"/>
<path id="Vector 3" d="M40.0161 5.852L38.6976 2.88525L37.379 5.852L34.0826 6.18164L36.3901 8.48912L35.7308 11.6535L38.6976 10.1373L41.6643 11.6535L41.005 8.48912L43.3125 6.18164L40.0161 5.852Z" fill="white"/>
<path id="Subtract_4" fill-rule="evenodd" clip-rule="evenodd" d="M20.9525 0.577637C18.191 0.577637 15.9525 2.81621 15.9525 5.57763V9.42247C15.9525 12.1839 18.191 14.4225 20.9524 14.4225H24.7973C27.5587 14.4225 29.7973 12.1839 29.7973 9.42248V5.57764C29.7973 2.81621 27.5587 0.577637 24.7973 0.577637H20.9525ZM22.8757 2.88542L24.1942 5.85217L27.4906 6.18181L25.1831 8.48929L25.8424 11.6537L22.8757 10.1375L19.9089 11.6537L20.5682 8.48929L18.2607 6.18181L21.5571 5.85217L22.8757 2.88542Z" fill="#FF1A1A"/>
<path id="Vector 2" d="M24.1944 5.852L22.8759 2.88525L21.5573 5.852L18.2609 6.18164L20.5684 8.48912L19.9091 11.6535L22.8759 10.1373L25.8426 11.6535L25.1833 8.48912L27.4908 6.18164L24.1944 5.852Z" fill="white"/>
<path id="Subtract_5" fill-rule="evenodd" clip-rule="evenodd" d="M5.12891 0.577515C2.36748 0.577515 0.128906 2.81609 0.128906 5.57751V9.42235C0.128906 12.1838 2.36748 14.4223 5.1289 14.4223H8.97374C11.7352 14.4223 13.9737 12.1838 13.9737 9.42235V5.57751C13.9737 2.81609 11.7352 0.577515 8.97375 0.577515H5.12891ZM7.05291 2.8853L8.37146 5.85205L11.6679 6.18169L9.36038 8.48916L10.0197 11.6535L7.05296 10.1374L4.08616 11.6535L4.74544 8.48916L2.43796 6.18169L5.73435 5.85205L7.05291 2.8853Z" fill="#FF1A1A"/>
<path id="Vector 1" d="M8.37146 5.852L7.0529 2.88525L5.73435 5.852L2.43796 6.18164L4.74543 8.48912L4.08615 11.6535L7.05295 10.1373L10.0197 11.6535L9.36037 8.48912L11.6678 6.18164L8.37146 5.852Z" fill="white"/>
</g>
</svg>
