<svg width="46" height="17" viewBox="0 0 46 17" fill="none" xmlns="http://www.w3.org/2000/svg">
<g id="&#208;&#181;&#208;&#187;&#208;&#191; 3" clip-path="url(#clip0_208_131154)">
<g id="&#208;&#161;&#208;&#187;&#208;&#190;&#208;&#185; 2">
<g id="svg8">
<g id="layer1">
<g id="g832">
<path id="Vector" d="M8.6728 6.65934C8.79684 6.83758 8.86493 7.04925 8.86825 7.26693C8.86825 7.73383 8.64742 8.23526 8.4507 8.66505C8.40375 8.76994 8.35806 8.86972 8.32379 8.96438L8.29968 9.01682C8.2451 9.13706 8.09788 9.46453 7.84405 10.0031C7.75268 10.1962 7.6651 10.3868 7.575 10.5851L7.42777 10.91L7.05465 11.7197C6.88585 12.0714 6.71706 12.4322 6.55714 12.7929L6.40358 13.1319C5.69413 14.6924 4.85268 16.5447 3.0175 16.9374C2.1291 17.1318 0.791427 16.867 0.293923 16.042C-0.203581 15.2169 0.533791 14.2511 1.48311 14.4673C1.63815 14.5089 1.7877 14.569 1.92858 14.6464C2.17606 14.7743 2.42735 14.892 2.69895 14.837C2.97055 14.782 3.11523 14.608 3.31956 14.3701C3.53735 14.1192 3.69498 13.8211 3.78026 13.499L3.76757 13.4683C3.76344 13.4578 3.75878 13.4476 3.75361 13.4376C3.52262 13.0116 3.32083 12.6304 3.1533 12.3119C3.05854 12.1328 2.96293 11.9538 2.86648 11.7747L2.48573 11.0481C2.20144 10.5173 2.15449 10.429 2.02884 10.2C1.75386 9.68838 1.46407 9.18055 1.15948 8.67657C0.83204 8.13165 0.494448 7.52532 0.769852 6.88575C0.875952 6.63717 1.06923 6.43673 1.31273 6.32275C1.55623 6.20877 1.83287 6.18925 2.08976 6.26791C2.66087 6.43932 2.9147 6.97785 3.15076 7.47927C3.19391 7.5701 3.2358 7.66092 3.27768 7.74662C3.65842 8.49493 4.03155 9.24323 4.40468 9.99026C4.43767 10.0645 4.48717 10.1655 4.54809 10.2896C4.60901 10.4137 4.66612 10.5275 4.73212 10.6733L4.83238 10.8729C4.87045 10.9522 4.90472 11.02 4.92883 11.0737C5.10228 10.6473 5.27658 10.2209 5.45172 9.79455C5.62686 9.36816 5.80158 8.94178 5.97588 8.51539C6.00786 8.42828 6.04429 8.34289 6.08502 8.25956C6.13706 8.14316 6.20432 7.9935 6.27793 7.82465L6.35281 7.64557C6.58253 7.09041 6.86047 6.42269 7.47473 6.23849C7.69313 6.17599 7.92534 6.18285 8.13973 6.25816C8.35412 6.33347 8.54026 6.47355 8.6728 6.65934Z" fill="white"/>
<path id="Vector_2" d="M16.0808 11.0417C16.3724 11.0424 16.6528 10.9286 16.8626 10.7244C17.0414 10.5199 17.1418 10.2577 17.1456 9.9851C17.1457 9.72047 17.1098 9.45708 17.039 9.20225C16.9024 8.69393 16.6711 8.21643 16.3575 7.79518C16.2792 7.68445 16.1944 7.57852 16.1036 7.47795C15.5911 6.95098 14.9525 6.56596 14.2494 6.35996C13.5383 6.16045 12.7865 6.16045 12.0754 6.35996H12.0563C11.7061 6.46102 10.857 6.70406 10.2224 7.47283C10.1983 7.50225 10.1717 7.53039 10.145 7.56109C10.0791 7.63259 10.0189 7.70915 9.96479 7.79006C9.45533 8.47888 9.16464 9.30698 9.13096 10.1655C9.08271 11.0391 9.3126 11.9054 9.78711 12.6381C10.0658 13.0541 10.4177 13.4152 10.8253 13.7036C11.0294 13.8439 11.2461 13.9647 11.4725 14.0643C11.7002 14.1693 11.9385 14.2491 12.1833 14.3023C12.338 14.3405 12.4948 14.37 12.6528 14.3905C12.8005 14.4042 12.9488 14.4097 13.097 14.4071C13.679 14.4251 14.2593 14.3354 14.8091 14.1424C15.0238 14.0641 15.2315 13.9674 15.4297 13.8533C15.7956 13.6519 16.0762 13.3231 16.2191 12.9284C16.2666 12.7667 16.2653 12.5943 16.2154 12.4333C16.1654 12.2722 16.0691 12.1298 15.9386 12.0241C15.8268 11.9332 15.6966 11.868 15.5573 11.8329C15.4179 11.7978 15.2726 11.7936 15.1315 11.8207C14.8409 11.8885 14.5617 11.9989 14.3027 12.1482L14.271 12.1648C13.898 12.3724 13.4811 12.4869 13.0552 12.4986C12.7556 12.495 12.4622 12.413 12.2036 12.2607C12.036 12.1705 11.881 12.0583 11.7429 11.9269C11.4962 11.6893 11.3133 11.3927 11.2111 11.0647C12.0221 11.0647 12.8343 11.0647 13.6453 11.0558C14.4563 11.0468 15.2698 11.0468 16.0808 11.0417ZM11.9383 8.53325C12.2891 8.25255 12.7227 8.09771 13.1706 8.09322C13.6216 8.09767 14.0585 8.25239 14.4131 8.53325C14.762 8.81456 15.0084 9.20463 15.1137 9.64228H11.2454C11.3454 9.20432 11.5897 8.81341 11.9383 8.53325Z" fill="white"/>
<path id="Vector_3" d="M20.4733 4.52052V13.3825C20.445 13.6655 20.3139 13.9279 20.1051 14.1191C19.8963 14.3104 19.6247 14.417 19.3425 14.4185C19.0604 14.4199 18.7877 14.316 18.577 14.1269C18.3664 13.9377 18.2326 13.6767 18.2015 13.394V4.51157C18.2058 4.21023 18.3272 3.92262 18.5396 3.71048C18.752 3.49834 19.0384 3.3786 19.3374 3.37695C19.6363 3.38378 19.9211 3.50641 20.1326 3.71938C20.3442 3.93234 20.4662 4.21926 20.4733 4.52052Z" fill="white"/>
<path id="Vector_4" d="M26.654 6.20142C26.1643 6.20376 25.6806 6.30999 25.2343 6.51319C24.788 6.71638 24.3891 7.012 24.0637 7.3808V7.35394C24.0499 7.05543 23.9204 6.7743 23.7031 6.57096C23.4859 6.36763 23.1981 6.25832 22.9017 6.26653C22.6053 6.27474 22.324 6.39981 22.1181 6.61487C21.9123 6.82992 21.7983 7.11779 21.8008 7.41662V15.8731C21.8025 16.1733 21.9222 16.4605 22.1337 16.6717C22.3452 16.883 22.6313 17.0011 22.9291 17.0001H22.9367C23.0848 17.0024 23.2319 16.9753 23.3695 16.9202C23.5072 16.8651 23.6327 16.7831 23.7388 16.679C23.8449 16.5749 23.9296 16.4507 23.988 16.3135C24.0464 16.1763 24.0773 16.0288 24.0789 15.8795V13.2329C24.4033 13.599 24.7999 13.8929 25.2432 14.0959C25.6866 14.299 26.167 14.4067 26.654 14.4123C28.6846 14.4123 30.3345 12.5908 30.3345 10.319C30.3345 8.04724 28.6846 6.20142 26.654 6.20142ZM26.1463 12.5729C24.994 12.5729 24.0535 11.5777 24.0535 10.3382C24.0535 9.09871 24.9889 8.09329 26.1463 8.09329C27.3038 8.09329 28.2404 9.08847 28.2404 10.3382C28.2404 11.5879 27.3038 12.5729 26.1463 12.5729Z" fill="white"/>
<path id="Vector_5" d="M36.5622 9.96205L34.1204 10.5198C33.8729 10.5913 33.6163 10.6258 33.3589 10.6221C33.18 10.6238 33.0041 10.575 32.8512 10.4814C32.7624 10.4188 32.6876 10.3382 32.6317 10.2447C32.3994 9.88146 32.388 9.34933 32.3854 8.92977C32.3817 8.46757 32.4564 8.00814 32.6063 7.5713C32.6458 7.46364 32.6978 7.36103 32.7611 7.26559C32.7934 7.22098 32.8281 7.17827 32.8652 7.13767C32.9384 7.05732 33.0274 6.99327 33.1266 6.94963C33.2236 6.90965 33.3278 6.8909 33.4325 6.89463C33.6382 6.90379 33.8415 6.94212 34.0366 7.00847C34.0772 7.02255 34.1191 7.03406 34.1635 7.04557C34.3805 7.11337 34.6318 7.20419 34.925 7.30908C35.3819 7.46641 35.8337 7.62887 36.2868 7.79516L37.0927 8.0868C37.2397 8.13925 37.3819 8.2043 37.5179 8.28124C37.6337 8.34592 37.7359 8.43283 37.8186 8.53707C37.8776 8.61852 37.9207 8.71055 37.9456 8.80825V8.82104C37.9916 9.02527 37.9566 9.23957 37.848 9.41813C37.7394 9.59668 37.5658 9.72533 37.3643 9.77657L37.2932 9.79576L36.5571 9.96333L36.5622 9.96205Z" fill="white"/>
<path id="Vector_6" d="M38.9177 10.8102C38.9663 11.011 38.9842 11.218 38.971 11.4242L38.938 12.28C38.9228 12.7635 38.9038 13.2445 38.8784 13.7293C38.8644 14.0427 38.8543 14.3113 38.8352 14.539C38.8352 14.5825 38.8251 14.6285 38.8226 14.6669C38.8094 14.8737 38.7667 15.0775 38.6956 15.2719C38.6581 15.3687 38.6001 15.456 38.5256 15.5278C38.4465 15.6051 38.3523 15.6648 38.2489 15.703C38.1956 15.7209 38.141 15.7363 38.0852 15.7491C38.0306 15.7593 37.9748 15.767 37.9189 15.7734C37.8585 15.7779 37.7978 15.7779 37.7374 15.7734C37.3822 15.7541 37.031 15.6879 36.6929 15.5764C36.2884 15.4469 35.9039 15.2609 35.5507 15.0238C35.4574 14.9559 35.3722 14.8774 35.2969 14.7897C35.2613 14.7464 35.2283 14.7012 35.1979 14.6541C35.1404 14.5607 35.1032 14.4561 35.0887 14.3471C35.0759 14.2425 35.0863 14.1363 35.1192 14.0363C35.1862 13.8398 35.2811 13.6541 35.4009 13.485C35.4238 13.4517 35.4479 13.412 35.472 13.3762C35.5989 13.1856 35.7588 12.9682 35.9441 12.7124C36.2272 12.3158 36.5127 11.9257 36.8021 11.5355L37.3097 10.8397C37.3388 10.8076 37.3656 10.7734 37.3897 10.7373C37.4893 10.606 37.6053 10.4882 37.7349 10.3868C37.7807 10.3535 37.8291 10.324 37.8796 10.2986C37.9123 10.2819 37.9462 10.2678 37.9811 10.2564C38.1287 10.2107 38.2868 10.2123 38.4335 10.2611C38.5801 10.31 38.7081 10.4035 38.7997 10.5288C38.8534 10.6158 38.8933 10.7108 38.9177 10.8102Z" fill="white"/>
<path id="Vector_7" d="M39.5701 1.544C39.5799 1.98534 39.5655 2.4269 39.5269 2.86665C39.4686 4.03196 39.4 5.19727 39.3264 6.36258C39.3061 6.71179 39.3061 7.13775 39.0726 7.42428C39.0561 7.44345 39.0383 7.4614 39.0193 7.47801C38.9157 7.58711 38.7838 7.66467 38.6385 7.70186H38.6106C38.4549 7.73784 38.2921 7.72717 38.1423 7.67116L38.075 7.64558C37.7413 7.48824 37.5547 7.10321 37.3808 6.80005C36.8046 5.77673 36.2259 4.76619 35.6573 3.74287C35.4282 3.36512 35.2202 2.9748 35.0342 2.57372C34.892 2.23474 34.708 1.85355 34.7803 1.4826C34.9174 0.823831 35.7297 0.481017 36.3033 0.29426C36.4797 0.236698 36.6625 0.189369 36.8452 0.145878C37.028 0.102386 37.212 0.0691283 37.3973 0.0435451C37.9989 -0.0396001 38.8809 -0.0843707 39.2934 0.449038C39.546 0.756036 39.5485 1.17816 39.5701 1.544Z" fill="white"/>
<path id="Vector_8" d="M44.7355 12.152C44.7698 12.2557 44.7824 12.3655 44.7723 12.4744C44.7661 12.5298 44.7567 12.5849 44.7444 12.6394C44.7291 12.6931 44.7126 12.7455 44.6923 12.798C44.6718 12.8545 44.6468 12.9093 44.6174 12.9617C44.4032 13.3289 44.1383 13.6636 43.8306 13.9556C43.5749 14.202 43.2887 14.414 42.979 14.5862C42.8266 14.6704 42.6593 14.7234 42.4866 14.7423C42.379 14.7544 42.2702 14.7429 42.1674 14.7087C42.0647 14.6745 41.9705 14.6183 41.8913 14.544C41.7425 14.3988 41.6144 14.2335 41.5106 14.0528C41.4915 14.0183 41.4662 13.9786 41.4433 13.9415C41.3253 13.7458 41.1984 13.5092 41.0461 13.2329C40.81 12.8065 40.5786 12.3801 40.3519 11.9537L39.9432 11.1952C39.8401 11.016 39.7652 10.8219 39.7211 10.6196C39.702 10.5244 39.6982 10.4268 39.7097 10.3305C39.7362 10.178 39.8099 10.0378 39.9202 9.9301C40.0306 9.82235 40.1719 9.75251 40.3239 9.73056C40.3602 9.72735 40.3968 9.72735 40.4331 9.73056C40.4897 9.73096 40.5462 9.73653 40.6019 9.74719C40.7636 9.78158 40.9202 9.83705 41.0677 9.9122C41.105 9.93445 41.1441 9.95369 41.1844 9.96977L41.9459 10.3714C42.3787 10.5966 42.8089 10.823 43.2379 11.057C43.5171 11.2067 43.7557 11.3308 43.9537 11.4498L44.0666 11.5163C44.2486 11.6162 44.4156 11.7415 44.5629 11.8885C44.6388 11.9626 44.6977 12.0525 44.7355 12.152Z" fill="white"/>
<path id="Vector_9" d="M45.1226 7.39355C45.1137 7.50175 45.0821 7.60683 45.0299 7.70182C44.934 7.85232 44.7975 7.97213 44.6365 8.0472C44.4063 8.16283 44.1604 8.24344 43.9067 8.2864L40.7339 9.01296L40.6603 9.02703C40.4555 9.06762 40.2432 9.02712 40.0673 8.91396C39.8915 8.8008 39.7656 8.62369 39.716 8.41943V8.40664C39.6957 8.30856 39.6932 8.2076 39.7084 8.1086C39.7375 7.97972 39.7909 7.85769 39.8658 7.74915C39.9545 7.62112 40.0539 7.50087 40.1628 7.38971L40.7592 6.77699C41.093 6.43162 41.4268 6.09009 41.7746 5.75367C41.9941 5.53109 42.1794 5.3405 42.3457 5.18572C42.3774 5.1563 42.4129 5.1256 42.4409 5.09746C42.5836 4.95455 42.745 4.83191 42.9206 4.7329C43.0134 4.68384 43.1155 4.65548 43.2201 4.64975C43.3296 4.64473 43.4389 4.66259 43.5412 4.7022C43.5928 4.7232 43.6433 4.74711 43.6922 4.77383C43.7399 4.80214 43.786 4.83288 43.8306 4.86593C43.8787 4.90074 43.9241 4.93923 43.9664 4.98106C44.2933 5.30843 44.5632 5.68897 44.7647 6.10672C44.9462 6.47895 45.1721 6.96503 45.1226 7.39355Z" fill="white"/>
<path id="path817" d="M44.7355 12.152C44.7005 12.0518 44.6442 11.9606 44.5705 11.8846C44.4233 11.7377 44.2562 11.6123 44.0743 11.5124L43.9613 11.4459C43.7633 11.3269 43.5247 11.2028 43.2455 11.0532C42.8165 10.8191 42.3863 10.5927 41.9535 10.3675L41.192 9.96589C41.1517 9.94982 41.1126 9.93057 41.0753 9.90833C40.9278 9.83318 40.7712 9.77771 40.6095 9.74331C40.5539 9.73265 40.4974 9.72709 40.4407 9.72669C40.4044 9.72347 40.3679 9.72347 40.3316 9.72669C40.1795 9.74863 40.0382 9.81847 39.9279 9.92622C39.8176 10.034 39.7439 10.1741 39.7173 10.3266C39.7058 10.423 39.7097 10.5206 39.7287 10.6157C39.7728 10.818 39.8477 11.0122 39.9508 11.1913L40.3608 11.9588C40.5884 12.3852 40.8198 12.8116 41.055 13.238C41.2073 13.5143 41.3342 13.7496 41.4522 13.9466C41.4751 13.9837 41.5004 14.0234 41.5195 14.0579C41.6233 14.2386 41.7514 14.4039 41.9002 14.5491C41.9794 14.6234 42.0736 14.6796 42.1763 14.7138C42.2791 14.748 42.3879 14.7595 42.4955 14.7474C42.6682 14.7285 42.8355 14.6754 42.9879 14.5913C43.2976 14.4191 43.5839 14.2071 43.8395 13.9607C44.1472 13.6686 44.4121 13.334 44.6263 12.9668C44.6557 12.9143 44.6807 12.8596 44.7012 12.8031C44.7215 12.7506 44.738 12.6982 44.7533 12.6444C44.7656 12.59 44.775 12.5349 44.7812 12.4794C44.7891 12.3682 44.7736 12.2566 44.7355 12.152ZM38.9177 10.8101C38.8923 10.7156 38.853 10.6255 38.801 10.5428C38.7094 10.4175 38.5814 10.3239 38.4348 10.2751C38.2881 10.2263 38.13 10.2246 37.9824 10.2703C37.9475 10.2817 37.9136 10.2959 37.8808 10.3125C37.8303 10.338 37.782 10.3675 37.7362 10.4008C37.6066 10.5022 37.4906 10.62 37.391 10.7513C37.3668 10.7873 37.3401 10.8215 37.311 10.8536L36.8033 11.5495C36.514 11.9332 36.2284 12.3298 35.9454 12.7263C35.7601 12.9821 35.6002 13.1996 35.4733 13.3902C35.4492 13.426 35.4251 13.4657 35.4022 13.4989C35.2824 13.668 35.1875 13.8537 35.1205 14.0502C35.0876 14.1503 35.0772 14.2565 35.09 14.3611C35.1045 14.47 35.1417 14.5747 35.1991 14.6681C35.2296 14.7151 35.2626 14.7604 35.2981 14.8037C35.3735 14.8913 35.4586 14.9699 35.552 15.0377C35.9052 15.2749 36.2897 15.4609 36.6942 15.5903C37.0323 15.7018 37.3835 15.7681 37.7387 15.7873C37.7991 15.7918 37.8598 15.7918 37.9202 15.7873C37.976 15.7809 38.0319 15.7733 38.0865 15.763C38.141 15.7528 38.1969 15.7349 38.2502 15.717C38.3535 15.6787 38.4478 15.619 38.5268 15.5417C38.6014 15.47 38.6594 15.3827 38.6969 15.2859C38.768 15.0915 38.8107 14.8877 38.8238 14.6809C38.8238 14.6412 38.8314 14.5952 38.8365 14.5529C38.8556 14.3253 38.8657 14.0566 38.8797 13.7432C38.905 13.2584 38.9241 12.7775 38.9393 12.294L38.9723 11.4344C38.9861 11.2247 38.9677 11.0141 38.9177 10.8101ZM39.5701 1.54392C39.5485 1.17808 39.546 0.755955 39.3163 0.455353C38.8987 -0.0767762 38.0167 -0.0332848 37.4151 0.0498604C37.2298 0.0754436 37.0445 0.109981 36.863 0.152193C36.6815 0.194405 36.4975 0.243013 36.3211 0.300575C35.7436 0.487332 34.9314 0.830146 34.7981 1.48891C34.7207 1.85987 34.9047 2.24106 35.0519 2.58003C35.2346 2.98088 35.4393 3.3712 35.6649 3.74918C36.2335 4.77251 36.8072 5.79584 37.3884 6.80637C37.5623 7.10953 37.7489 7.49456 38.0826 7.65189L38.1499 7.67748C38.2997 7.73348 38.4625 7.74415 38.6182 7.70818H38.6461C38.7914 7.67099 38.9233 7.59342 39.0269 7.48432C39.0459 7.46772 39.0637 7.44976 39.0802 7.4306C39.3099 7.14407 39.3099 6.71811 39.334 6.3689C39.4038 5.20359 39.4762 4.03827 39.5345 2.87296C39.5708 2.43095 39.5826 1.98725 39.5701 1.54392ZM44.7647 6.10283C44.5632 5.68509 44.2933 5.30455 43.9664 4.97717C43.9241 4.93535 43.8787 4.89686 43.8306 4.86205C43.7861 4.829 43.7399 4.79826 43.6923 4.76995C43.6433 4.74323 43.5929 4.71931 43.5412 4.69832C43.4389 4.6587 43.3296 4.64085 43.2201 4.64587C43.1155 4.6516 43.0134 4.67996 42.9206 4.72902C42.7406 4.82704 42.5748 4.94972 42.4282 5.09358C42.4003 5.12172 42.3647 5.15242 42.333 5.18184C42.1667 5.33662 41.9815 5.52721 41.7619 5.74979C41.4205 6.09004 41.0867 6.43158 40.7466 6.77311L40.1501 7.38583C40.0412 7.49699 39.9419 7.61723 39.8531 7.74527C39.7783 7.85381 39.7248 7.97584 39.6957 8.10471C39.6805 8.20372 39.6831 8.30468 39.7033 8.40276V8.41555C39.753 8.6198 39.8788 8.79692 40.0546 8.91008C40.2305 9.02324 40.4429 9.06374 40.6476 9.02315L40.7212 9.00908L43.894 8.28252C44.1477 8.23956 44.3936 8.15895 44.6238 8.04331C44.7849 7.96825 44.9214 7.84844 45.0172 7.69794C45.0694 7.60295 45.101 7.49787 45.1099 7.38967C45.1721 6.96499 44.9462 6.47891 44.7647 6.10283ZM37.9494 8.82616V8.81337C37.9245 8.71567 37.8815 8.62364 37.8225 8.54219C37.7397 8.43795 37.6375 8.35104 37.5217 8.28636C37.3857 8.20942 37.2435 8.14437 37.0965 8.09192L36.2906 7.80028C35.8375 7.63398 35.3857 7.47153 34.9288 7.3142C34.6331 7.2093 34.3818 7.11848 34.1673 7.05069C34.1255 7.03918 34.0836 7.02766 34.0404 7.01359C33.8454 6.94724 33.642 6.90891 33.4363 6.89975C33.3316 6.89602 33.2274 6.91477 33.1304 6.95475C33.0332 6.99696 32.9455 7.05878 32.8728 7.13639C32.8357 7.17699 32.801 7.2197 32.7687 7.26431C32.7054 7.35975 32.6535 7.46236 32.6139 7.57003C32.464 8.00686 32.3894 8.4663 32.3931 8.92849C32.3931 9.34422 32.407 9.88019 32.6393 10.2435C32.6953 10.3369 32.7701 10.4176 32.8589 10.4801C33.0118 10.5737 33.1876 10.6225 33.3665 10.6208C33.6239 10.6246 33.8805 10.5901 34.128 10.5185L36.5698 9.96077L37.3059 9.7932L37.377 9.77402C37.5752 9.72084 37.7454 9.59256 37.8521 9.41595C37.9587 9.23934 37.9936 9.02805 37.9494 8.82616Z" fill="#FF1A1A"/>
<path id="path819" fill-rule="evenodd" clip-rule="evenodd" d="M8.67278 6.65927C8.53924 6.47486 8.35267 6.3363 8.13835 6.26239C7.92403 6.18848 7.69234 6.18279 7.47471 6.2461C6.86044 6.42774 6.58631 7.09546 6.35279 7.65318L6.27791 7.83226C6.2043 8.00111 6.13703 8.15077 6.085 8.26717C6.04427 8.3505 6.00783 8.43589 5.97585 8.523C5.80663 8.94939 5.63191 9.37577 5.45169 9.80216C5.27148 10.2285 5.09718 10.6549 4.92881 11.0813C4.90469 11.0276 4.87043 10.9534 4.83235 10.8805L4.73336 10.6771C4.66736 10.5364 4.60645 10.4085 4.54933 10.2934C4.49222 10.1782 4.444 10.0593 4.40592 9.98508C4.03279 9.23805 3.66093 8.48975 3.27892 7.74144C3.23577 7.65573 3.19389 7.56491 3.15201 7.47409C2.92102 6.97266 2.6672 6.43414 2.08974 6.26785C1.83277 6.18698 1.55522 6.20468 1.31041 6.31754C1.06561 6.4304 0.870821 6.63046 0.763481 6.87929C0.488077 7.51886 0.825669 8.12902 1.15311 8.67011C1.4577 9.16983 1.74749 9.67766 2.02247 10.1936C2.14939 10.4226 2.19507 10.5108 2.47936 11.0417L2.86011 11.7682C2.95656 11.9473 3.05217 12.1264 3.14693 12.3055C3.31446 12.624 3.51625 13.0052 3.74724 13.4311C3.75241 13.4411 3.75707 13.4514 3.7612 13.4618L3.77389 13.4925C3.68861 13.8147 3.53098 14.1127 3.31319 14.3636C3.10886 14.6016 2.94895 14.787 2.69258 14.8305C2.43621 14.874 2.16969 14.7627 1.92221 14.6399C1.78133 14.5626 1.63178 14.5024 1.47674 14.4609C0.52742 14.2408 -0.208683 15.2002 0.287552 16.0355C0.783787 16.8708 2.124 17.1279 3.01113 16.9309C4.84631 16.5382 5.68776 14.686 6.39721 13.1254L6.55204 12.7916C6.71195 12.4308 6.88075 12.0701 7.04955 11.7183L7.42267 10.9086L7.5699 10.5837C7.66 10.388 7.74758 10.2 7.83895 10.0017C8.09278 9.46318 8.24 9.13572 8.29458 9.01548L8.31869 8.96303C8.35803 8.86837 8.40372 8.7686 8.4456 8.66371C8.64232 8.23391 8.8695 7.73248 8.86315 7.26559C8.86107 7.04888 8.79477 6.83774 8.67278 6.65927ZM26.654 6.20133C26.1643 6.20368 25.6806 6.3099 25.2343 6.5131C24.788 6.7163 24.3891 7.01191 24.0637 7.38072V7.35385C24.0499 7.05535 23.9204 6.77422 23.7031 6.57088C23.4859 6.36755 23.1981 6.25824 22.9017 6.26645C22.6054 6.27466 22.324 6.39973 22.1181 6.61478C21.9123 6.82984 21.7983 7.11771 21.8008 7.41653V15.873C21.8025 16.1732 21.9222 16.4604 22.1337 16.6717C22.3452 16.8829 22.6313 17.001 22.9291 17H22.9367C23.0848 17.0023 23.2319 16.9752 23.3695 16.9201C23.5072 16.865 23.6327 16.7831 23.7388 16.6789C23.8449 16.5748 23.9296 16.4506 23.988 16.3134C24.0464 16.1762 24.0773 16.0287 24.0789 15.8794V13.2329C24.4034 13.5989 24.7999 13.8928 25.2432 14.0958C25.6866 14.2989 26.167 14.4067 26.654 14.4122C28.6846 14.4122 30.3345 12.5907 30.3345 10.3189C30.3345 8.04716 28.6846 6.20133 26.654 6.20133ZM26.1463 12.5728C24.994 12.5728 24.0535 11.5776 24.0535 10.3381C24.0535 9.09862 24.9889 8.09321 26.1463 8.09321C27.3038 8.09321 28.2404 9.08839 28.2404 10.3381C28.2404 11.5879 27.3038 12.5728 26.1463 12.5728ZM16.077 11.0378C16.3686 11.0385 16.649 10.9247 16.8588 10.7206C17.0376 10.5161 17.138 10.2538 17.1418 9.98124C17.1418 9.71661 17.106 9.45322 17.0352 9.1984C16.8985 8.69008 16.6672 8.21257 16.3536 7.79133C16.2753 7.6806 16.1906 7.57467 16.0998 7.47409C15.5872 6.94713 14.9487 6.5621 14.2456 6.35611C13.5344 6.15659 12.7827 6.15659 12.0715 6.35611H12.0525C11.7022 6.45716 10.8532 6.7002 10.2186 7.46898C10.1945 7.4984 10.1678 7.52654 10.1412 7.55724C10.0753 7.62874 10.0151 7.70529 9.96096 7.78621C9.4515 8.47502 9.16081 9.30313 9.12713 10.1616C9.07888 11.0352 9.30877 11.9015 9.78328 12.6342C10.062 13.0502 10.4138 13.4113 10.8214 13.6998C11.0256 13.8401 11.2423 13.9608 11.4687 14.0605C11.6964 14.1655 11.9347 14.2452 12.1794 14.2984C12.3342 14.3366 12.491 14.3661 12.649 14.3867C12.7967 14.4003 12.945 14.4059 13.0932 14.4033C13.6752 14.4213 14.2554 14.3315 14.8053 14.1385C15.02 14.0602 15.2276 13.9635 15.4259 13.8494C15.7918 13.648 16.0724 13.3193 16.2153 12.9246C16.2624 12.7637 16.2613 12.5924 16.2121 12.4322C16.1628 12.2719 16.0677 12.1299 15.9386 12.0241C15.8267 11.9332 15.6966 11.868 15.5572 11.8329C15.4179 11.7978 15.2726 11.7936 15.1314 11.8207C14.8408 11.8885 14.5616 11.9988 14.3027 12.1481L14.271 12.1648C13.898 12.3724 13.4811 12.4869 13.0551 12.4986C12.7556 12.495 12.4622 12.413 12.2035 12.2607C12.0359 12.1705 11.881 12.0582 11.7428 11.9268C11.4962 11.6893 11.3133 11.3927 11.2111 11.0647C12.022 11.0647 12.8343 11.0647 13.6453 11.0557C14.4563 11.0468 15.2698 11.0468 16.0808 11.0417L16.077 11.0378ZM11.9383 8.53324C12.2891 8.25253 12.7227 8.09769 13.1706 8.09321C13.6216 8.09765 14.0585 8.25237 14.4131 8.53324C14.762 8.81455 15.0084 9.20461 15.1137 9.64226H11.2453C11.3454 9.2043 11.5896 8.8134 11.9383 8.53324ZM19.3374 3.37695C19.0384 3.3786 18.7519 3.49834 18.5396 3.71048C18.3272 3.92262 18.2058 4.21023 18.2015 4.51157V13.394C18.2326 13.6767 18.3663 13.9377 18.577 14.1269C18.7877 14.316 19.0604 14.4199 19.3425 14.4185C19.6247 14.417 19.8963 14.3104 20.1051 14.1191C20.3139 13.9279 20.445 13.6655 20.4733 13.3825V4.52052C20.4662 4.21926 20.3442 3.93234 20.1326 3.71937C19.9211 3.50641 19.6363 3.38378 19.3374 3.37695Z" fill="#434861"/>
</g>
</g>
</g>
</g>
</g>
<defs>
<clipPath id="clip0_208_131154">
<rect width="45" height="17" fill="white" transform="translate(0.128906)"/>
</clipPath>
</defs>
</svg>
